<svg width="124" height="138" viewBox="0 0 124 138" fill="none" xmlns="http://www.w3.org/2000/svg">
<g filter="url(#filter0_bddd_170_13722)">
<path d="M91.4375 21.9192C91.4375 18.7623 88.9613 16.2031 85.9067 16.2031H38.0933C35.0387 16.2031 32.5625 18.7623 32.5625 21.9192V87.8045C32.5625 89.1943 34.1112 89.974 35.17 89.1173L42.9429 82.8285C43.6912 82.2231 44.7811 82.4139 45.2946 83.2402L48.8932 89.0307C49.5301 90.0554 50.9805 90.0515 51.6123 89.0235L54.7584 83.9037C55.3902 82.8756 56.8406 82.8718 57.4774 83.8965L60.6682 89.0307C61.3051 90.0554 62.7555 90.0516 63.3873 89.0235L66.5335 83.9037C67.1652 82.8756 68.6157 82.8718 69.2525 83.8965L72.4433 89.0307C73.0801 90.0554 74.5306 90.0515 75.1623 89.0235L78.7081 83.2533C79.2193 82.4213 80.3134 82.2268 81.0643 82.8343L88.83 89.1173C89.8888 89.974 91.4375 89.1943 91.4375 87.8045V21.9192Z" fill="url(#paint0_linear_170_13722)" shape-rendering="crispEdges"/>
<path d="M57.252 53.9983L76.4259 34.0896C77.0679 33.4229 78.1087 33.4229 78.7507 34.0896L79.5535 34.9232C80.196 35.5903 80.196 36.6721 79.5535 37.3392L58.4144 59.2884C57.7723 59.9551 56.7316 59.9551 56.0896 59.2884L44.3364 47.085C43.694 46.4179 43.694 45.336 44.3364 44.669L45.1393 43.8354C45.7813 43.1687 46.822 43.1687 47.4641 43.8354L57.252 53.9983Z" fill="url(#paint1_linear_170_13722)" shape-rendering="crispEdges"/>
</g>
<defs>
<filter id="filter0_bddd_170_13722" x="0.5625" y="0.203125" width="122.875" height="137.594" filterUnits="userSpaceOnUse" color-interpolation-filters="sRGB">
<feFlood flood-opacity="0" result="BackgroundImageFix"/>
<feGaussianBlur in="BackgroundImageFix" stdDeviation="5"/>
<feComposite in2="SourceAlpha" operator="in" result="effect1_backgroundBlur_170_13722"/>
<feColorMatrix in="SourceAlpha" type="matrix" values="0 0 0 0 0 0 0 0 0 0 0 0 0 0 0 0 0 0 127 0" result="hardAlpha"/>
<feOffset dy="16"/>
<feGaussianBlur stdDeviation="16"/>
<feComposite in2="hardAlpha" operator="out"/>
<feColorMatrix type="matrix" values="0 0 0 0 0.25098 0 0 0 0 0.768627 0 0 0 0 0.666667 0 0 0 0.3 0"/>
<feBlend mode="normal" in2="effect1_backgroundBlur_170_13722" result="effect2_dropShadow_170_13722"/>
<feColorMatrix in="SourceAlpha" type="matrix" values="0 0 0 0 0 0 0 0 0 0 0 0 0 0 0 0 0 0 127 0" result="hardAlpha"/>
<feOffset dy="1"/>
<feGaussianBlur stdDeviation="1"/>
<feComposite in2="hardAlpha" operator="out"/>
<feColorMatrix type="matrix" values="0 0 0 0 0.25098 0 0 0 0 0.768627 0 0 0 0 0.666667 0 0 0 0.04 0"/>
<feBlend mode="normal" in2="effect2_dropShadow_170_13722" result="effect3_dropShadow_170_13722"/>
<feColorMatrix in="SourceAlpha" type="matrix" values="0 0 0 0 0 0 0 0 0 0 0 0 0 0 0 0 0 0 127 0" result="hardAlpha"/>
<feOffset/>
<feComposite in2="hardAlpha" operator="out"/>
<feColorMatrix type="matrix" values="0 0 0 0 0.25098 0 0 0 0 0.768627 0 0 0 0 0.666667 0 0 0 0.08 0"/>
<feBlend mode="normal" in2="effect3_dropShadow_170_13722" result="effect4_dropShadow_170_13722"/>
<feBlend mode="normal" in="SourceGraphic" in2="effect4_dropShadow_170_13722" result="shape"/>
</filter>
<linearGradient id="paint0_linear_170_13722" x1="38.2085" y1="20.058" x2="62.5888" y2="89.5904" gradientUnits="userSpaceOnUse">
<stop stop-color="#9EE1D4"/>
<stop offset="0.773287" stop-color="#35A58F"/>
<stop offset="1" stop-color="#28806F"/>
</linearGradient>
<linearGradient id="paint1_linear_170_13722" x1="59.1543" y1="45.6845" x2="74.8813" y2="94.6082" gradientUnits="userSpaceOnUse">
<stop stop-color="white"/>
<stop offset="1" stop-color="white" stop-opacity="0.51"/>
</linearGradient>
</defs>
</svg>
