<svg width="21" height="23" viewBox="0 0 21 23" fill="none" xmlns="http://www.w3.org/2000/svg">
<g clip-path="url(#clip0_470_4826)">
<path d="M14.9333 1C16.8687 4.1924 18.1333 8.31373 18.1333 12C18.1333 15.6863 16.8687 18.8076 14.9333 22M10.6666 3C12.1762 5.49007 12.8 9.12471 12.8 12C12.8 14.8753 12.1762 17.5099 10.6666 20M5.33332 5C6.42485 6.81967 7.46665 8.89883 7.46665 11C7.46665 13.1012 6.42485 15.1803 5.33332 17M1.06665 8C1.85331 9.13384 2.13332 10.6635 2.13332 12C2.13332 13.3365 1.85331 13.8662 1.06665 15" stroke="#666D80" stroke-width="2.44123" stroke-linecap="round"/>
</g>
<defs>
<clipPath id="clip0_470_4826">
<rect width="20.2667" height="23" fill="white"/>
</clipPath>
</defs>
</svg>
