<svg width="280" height="145" viewBox="0 0 280 145" fill="none" xmlns="http://www.w3.org/2000/svg">
<path fill-rule="evenodd" clip-rule="evenodd" d="M279.999 140.428C279.993 142.637 278.141 144.372 275.933 144.303L239.013 143.156C237.323 143.104 236 141.691 236 140C236 138.309 237.323 136.896 239.013 136.844L275.933 135.697C278.141 135.628 279.993 137.363 279.999 139.572C280 139.715 280 139.857 280 140C280 140.143 280 140.285 279.999 140.428ZM279.375 126.684C279.582 128.883 277.907 130.789 275.703 130.934L238.818 133.36C237.145 133.47 235.704 132.191 235.541 130.522C235.379 128.853 236.549 127.343 238.212 127.128L274.871 122.39C277.062 122.106 279.073 123.653 279.294 125.851C279.322 126.128 279.349 126.406 279.375 126.684ZM277.415 113.086C277.838 115.254 276.357 117.314 274.177 117.674L237.694 123.698C236.047 123.97 234.494 122.845 234.17 121.208C233.846 119.57 234.857 117.955 236.484 117.579L272.511 109.255C274.664 108.757 276.818 110.098 277.253 112.264C277.308 112.538 277.362 112.812 277.415 113.086ZM274.127 99.7461C274.761 101.862 273.49 104.058 271.356 104.631L235.641 114.223C234.031 114.656 232.378 113.694 231.894 112.098C231.411 110.502 232.255 108.796 233.835 108.262L268.868 96.418C270.961 95.7105 273.237 96.8319 273.884 98.9442C273.965 99.2112 274.046 99.4785 274.127 99.7461ZM269.536 86.7958C270.376 88.839 269.329 91.1498 267.262 91.9308L232.671 105.003C231.11 105.593 229.37 104.801 228.731 103.26C228.092 101.718 228.763 99.9334 230.283 99.2456L263.975 84.0033C265.987 83.0927 268.363 83.984 269.215 86.0221C269.323 86.2796 269.43 86.5375 269.536 86.7958ZM263.691 74.3612C264.728 76.3117 263.913 78.7145 261.934 79.6954L228.805 96.1123C227.307 96.8545 225.495 96.2378 224.706 94.7645C223.916 93.2911 224.409 91.4442 225.857 90.6088L257.881 72.1297C259.795 71.0256 262.246 71.6789 263.295 73.6232C263.428 73.8688 263.559 74.1148 263.691 74.3612ZM256.651 62.5612C257.875 64.4006 257.3 66.8717 255.426 68.0423L224.074 87.6299C222.654 88.5172 220.787 88.0815 219.855 86.6899C218.924 85.2983 219.233 83.4076 220.595 82.4326L250.651 60.9097C252.447 59.6236 254.951 60.0338 256.185 61.8658C256.341 62.0971 256.496 62.3289 256.651 62.5612ZM248.49 51.5068C249.888 53.2179 249.557 55.7334 247.807 57.0815L218.525 79.6384C217.196 80.6618 215.293 80.4108 214.228 79.115C213.163 77.8192 213.287 75.904 214.549 74.7992L242.358 50.449C244.02 48.9937 246.552 49.1576 247.959 50.8604C248.137 51.0753 248.314 51.2908 248.49 51.5068ZM239.29 41.3013C240.848 42.868 240.764 45.4037 239.154 46.9161L212.211 72.2195C210.988 73.3682 209.069 73.3043 207.882 72.1177C206.696 70.9312 206.632 69.0118 207.78 67.7887L233.084 40.8461C234.596 39.2358 237.132 39.1523 238.699 40.7097C238.896 40.9063 239.094 41.1035 239.29 41.3013ZM229.14 32.0407C230.842 33.4482 231.006 35.9801 229.551 37.6421L205.201 65.4514C204.096 66.7131 202.181 66.8366 200.885 65.7719C199.589 64.7073 199.338 62.804 200.362 61.4754L222.919 32.1927C224.267 30.4426 226.782 30.1123 228.493 31.5096C228.709 31.686 228.925 31.8631 229.14 32.0407ZM218.134 23.8146C219.966 25.049 220.376 27.5528 219.09 29.3489L197.567 59.4052C196.592 60.7668 194.702 61.0764 193.31 60.1448C191.919 59.2131 191.483 57.3459 192.37 55.9257L211.958 24.5738C213.128 22.7003 215.599 22.1255 217.439 23.349C217.671 23.5035 217.903 23.6587 218.134 23.8146ZM206.377 16.7048C208.321 17.7537 208.974 20.2053 207.87 22.1187L189.391 54.1432C188.556 55.5909 186.709 56.0837 185.236 55.2945C183.762 54.5052 183.146 52.693 183.888 51.1954L200.305 18.0664C201.285 16.0869 203.688 15.2723 205.639 16.3095C205.885 16.4405 206.131 16.5723 206.377 16.7048ZM193.978 10.7847C196.016 11.6371 196.907 14.0125 195.997 16.0252L180.754 49.7166C180.067 51.2368 178.282 51.9083 176.74 51.2691C175.199 50.6299 174.407 48.8897 174.997 47.3289L188.069 12.7379C188.85 10.6714 191.161 9.62375 193.204 10.4638C193.462 10.57 193.72 10.677 193.978 10.7847ZM181.056 6.11636C183.168 6.76331 184.289 9.0392 183.582 11.132L171.738 46.165C171.204 47.7446 169.498 48.5891 167.902 48.1055C166.306 47.6219 165.344 45.9691 165.777 44.3587L175.369 8.6435C175.942 6.50997 178.138 5.23919 180.254 5.87338C180.521 5.9536 180.789 6.03459 181.056 6.11636ZM167.736 2.74719C169.902 3.18247 171.243 5.33645 170.745 7.48888L162.421 43.5164C162.045 45.1432 160.43 46.1542 158.792 45.83C157.155 45.5058 156.03 43.9532 156.302 42.3058L162.326 5.82301C162.686 3.64338 164.746 2.16231 166.914 2.58455C167.188 2.63796 167.462 2.69218 167.736 2.74719ZM154.149 0.706162C156.347 0.926773 157.894 2.93835 157.61 5.12926L152.872 41.7883C152.657 43.4512 151.147 44.6214 149.478 44.4588C147.809 44.2962 146.53 42.8546 146.64 41.1815L149.066 4.29725C149.211 2.09288 151.117 0.417511 153.316 0.625028C153.594 0.65126 153.872 0.678306 154.149 0.706162ZM140.428 0.00064058C142.637 0.00725284 144.372 1.85867 144.303 4.06675L143.156 40.9873C143.104 42.6774 141.691 44 140 44C138.309 44 136.896 42.6774 136.844 40.9873L135.697 4.06675C135.628 1.85867 137.363 0.00725284 139.572 0.000640581C139.715 0.000213628 139.857 0 140 0C140.143 0 140.285 0.000213627 140.428 0.00064058ZM126.684 0.625027C128.883 0.41751 130.789 2.09288 130.934 4.29725L133.36 41.1815C133.47 42.8546 132.191 44.2962 130.522 44.4588C128.853 44.6214 127.343 43.4512 127.128 41.7883L122.39 5.12926C122.106 2.93834 123.653 0.926771 125.851 0.70616C126.128 0.678304 126.406 0.651259 126.684 0.625027ZM113.086 2.58455C115.254 2.16231 117.314 3.64338 117.674 5.823L123.698 42.3058C123.97 43.9532 122.846 45.5058 121.208 45.83C119.57 46.1542 117.955 45.1432 117.579 43.5164L109.255 7.48888C108.757 5.33645 110.098 3.18247 112.264 2.74719C112.538 2.69217 112.812 2.63796 113.086 2.58455ZM99.7462 5.87338C101.862 5.23919 104.058 6.50997 104.631 8.6435L114.223 44.3587C114.656 45.9691 113.694 47.6219 112.098 48.1055C110.502 48.5891 108.796 47.7446 108.262 46.165L96.418 11.132C95.7105 9.0392 96.8319 6.76331 98.9442 6.11636C99.2112 6.03459 99.4785 5.9536 99.7462 5.87338ZM86.7958 10.4638C88.839 9.62374 91.1498 10.6714 91.9308 12.7378L105.003 47.3289C105.593 48.8897 104.801 50.6299 103.26 51.2691C101.718 51.9083 99.9334 51.2368 99.2456 49.7166L84.0033 16.0253C83.0927 14.0125 83.984 11.6371 86.0221 10.7847C86.2796 10.677 86.5375 10.57 86.7958 10.4638ZM74.3612 16.3095C76.3117 15.2723 78.7145 16.0869 79.6954 18.0664L96.1123 51.1954C96.8545 52.693 96.2378 54.5052 94.7645 55.2945C93.2911 56.0837 91.4442 55.5909 90.6088 54.1432L72.1297 22.1187C71.0256 20.2053 71.679 17.7537 73.6232 16.7048C73.8688 16.5723 74.1148 16.4405 74.3612 16.3095ZM62.5612 23.349C64.4006 22.1255 66.8717 22.7003 68.0423 24.5738L87.6299 55.9257C88.5172 57.3459 88.0815 59.2131 86.6899 60.1448C85.2983 61.0764 83.4076 60.7668 82.4326 59.4052L60.9097 29.3489C59.6236 27.5528 60.0338 25.049 61.8658 23.8146C62.0971 23.6587 62.3289 23.5035 62.5612 23.349ZM51.5068 31.5096C53.2179 30.1123 55.7334 30.4426 57.0815 32.1927L79.6384 61.4754C80.6618 62.804 80.4108 64.7073 79.115 65.7719C77.8192 66.8366 75.904 66.7131 74.7992 65.4514L50.449 37.6421C48.9937 35.9801 49.1576 33.4482 50.8604 32.0407C51.0753 31.8631 51.2908 31.686 51.5068 31.5096ZM41.3013 40.7097C42.868 39.1523 45.4037 39.2358 46.9161 40.8461L72.2195 67.7887C73.3682 69.0118 73.3043 70.9312 72.1177 72.1178C70.9312 73.3043 69.0118 73.3682 67.7887 72.2195L40.8461 46.9161C39.2358 45.4037 39.1523 42.868 40.7097 41.3013C40.9063 41.1035 41.1035 40.9063 41.3013 40.7097ZM32.0407 50.8604C33.4482 49.1576 35.9801 48.9937 37.6421 50.449L65.4514 74.7992C66.7131 75.904 66.8366 77.8192 65.7719 79.115C64.7073 80.4108 62.804 80.6618 61.4754 79.6384L32.1927 57.0815C30.4426 55.7334 30.1123 53.2179 31.5096 51.5068C31.686 51.2908 31.8631 51.0753 32.0407 50.8604ZM23.8146 61.8658C25.049 60.0338 27.5528 59.6236 29.3489 60.9097L59.4052 82.4326C60.7668 83.4076 61.0764 85.2983 60.1448 86.6899C59.2131 88.0815 57.3459 88.5172 55.9257 87.6299L24.5738 68.0423C22.7003 66.8717 22.1255 64.4006 23.349 62.5612C23.5035 62.3289 23.6587 62.0971 23.8146 61.8658ZM16.7048 73.6232C17.7537 71.679 20.2053 71.0256 22.1187 72.1297L54.1432 90.6088C55.5909 91.4442 56.0837 93.2911 55.2945 94.7645C54.5052 96.2378 52.693 96.8545 51.1954 96.1123L18.0664 79.6954C16.0869 78.7145 15.2723 76.3117 16.3095 74.3612C16.4405 74.1148 16.5723 73.8688 16.7048 73.6232ZM10.7847 86.0221C11.6371 83.984 14.0125 83.0927 16.0253 84.0033L49.7166 99.2456C51.2368 99.9334 51.9083 101.718 51.2691 103.26C50.6299 104.801 48.8897 105.593 47.3289 105.003L12.7379 91.9307C10.6714 91.1498 9.62375 88.839 10.4638 86.7958C10.57 86.5375 10.677 86.2796 10.7847 86.0221ZM6.11636 98.9442C6.76331 96.8319 9.0392 95.7105 11.132 96.418L46.165 108.262C47.7446 108.796 48.5891 110.502 48.1055 112.098C47.6219 113.694 45.9691 114.656 44.3587 114.223L8.6435 104.631C6.50997 104.058 5.23919 101.862 5.87338 99.7462C5.9536 99.4785 6.03459 99.2112 6.11636 98.9442ZM2.74718 112.264C3.18246 110.098 5.33645 108.757 7.48887 109.255L43.5164 117.579C45.1432 117.955 46.1542 119.57 45.83 121.208C45.5058 122.845 43.9532 123.97 42.3058 123.698L5.82301 117.674C3.64338 117.314 2.16231 115.254 2.58455 113.086C2.63796 112.812 2.69217 112.538 2.74718 112.264ZM0.706163 125.851C0.926774 123.653 2.93835 122.106 5.12926 122.39L41.7883 127.128C43.4512 127.343 44.6214 128.853 44.4588 130.522C44.2962 132.191 42.8546 133.47 41.1815 133.36L4.29725 130.934C2.09288 130.789 0.417511 128.883 0.625028 126.684C0.651261 126.406 0.678306 126.128 0.706163 125.851ZM4.06675 135.697C1.85867 135.628 0.00725284 137.363 0.00064058 139.572C0.000213627 139.715 0 139.857 0 140C0 140.143 0.000213628 140.285 0.000640581 140.428C0.00725284 142.637 1.85867 144.372 4.06675 144.303L40.9873 143.156C42.6774 143.104 44 141.691 44 140C44 138.309 42.6774 136.896 40.9873 136.844L4.06675 135.697Z" fill="#DFE1E7"/>
</svg>
