<svg width="18" height="14" viewBox="0 0 18 14" fill="none" xmlns="http://www.w3.org/2000/svg">
<path d="M9.00025 10.3335C10.8412 10.3335 12.3336 8.84108 12.3336 7.00016C12.3336 5.15921 10.8412 3.66683 9.00025 3.66683C7.15928 3.66683 5.6669 5.15921 5.6669 7.00016C5.6669 8.84108 7.15928 10.3335 9.00025 10.3335ZM16.504 0.335938H1.50399C1.04375 0.335938 0.670654 0.709029 0.670654 1.16927V12.8359C0.670654 13.2962 1.04375 13.6692 1.50399 13.6692H16.504C16.9643 13.6692 17.3373 13.2962 17.3373 12.8359V1.16927C17.3373 0.709029 16.9643 0.335938 16.504 0.335938ZM2.33732 10.0387V3.96159C3.27546 3.681 4.01522 2.94093 4.29538 2.0026H13.7051C13.986 2.94344 14.7289 3.68495 15.6707 3.96383V10.0365C14.7273 10.3158 13.9834 11.0594 13.7036 12.0026H4.29684C4.01779 11.062 3.2771 10.3198 2.33732 10.0387Z" fill="url(#paint0_linear_443_4256)"/>
<defs>
<linearGradient id="paint0_linear_443_4256" x1="9.00399" y1="0.335937" x2="9.00399" y2="13.6692" gradientUnits="userSpaceOnUse">
<stop stop-color="#818898"/>
<stop offset="1" stop-color="#BDC4D3"/>
</linearGradient>
</defs>
</svg>
