<svg width="18" height="14" viewBox="0 0 18 14" fill="none" xmlns="http://www.w3.org/2000/svg">
<path d="M9.00025 10.3333C10.8412 10.3333 12.3336 8.84093 12.3336 7.00001C12.3336 5.15906 10.8412 3.66668 9.00025 3.66668C7.15928 3.66668 5.6669 5.15906 5.6669 7.00001C5.6669 8.84093 7.15928 10.3333 9.00025 10.3333ZM16.504 0.335785H1.50399C1.04375 0.335785 0.670654 0.708877 0.670654 1.16912V12.8358C0.670654 13.296 1.04375 13.6691 1.50399 13.6691H16.504C16.9643 13.6691 17.3373 13.296 17.3373 12.8358V1.16912C17.3373 0.708877 16.9643 0.335785 16.504 0.335785ZM2.33732 10.0386V3.96143C3.27546 3.68084 4.01522 2.94078 4.29538 2.00245H13.7051C13.986 2.94328 14.7289 3.6848 15.6707 3.96368V10.0363C14.7273 10.3157 13.9834 11.0593 13.7036 12.0024H4.29684C4.01779 11.0618 3.2771 10.3197 2.33732 10.0386Z" fill="url(#paint0_linear_443_1441)"/>
<defs>
<linearGradient id="paint0_linear_443_1441" x1="9.00399" y1="0.335785" x2="9.00399" y2="13.6691" gradientUnits="userSpaceOnUse">
<stop stop-color="#272835"/>
<stop offset="1" stop-color="#72759B"/>
</linearGradient>
</defs>
</svg>
