<svg width="24" height="24" viewBox="0 0 24 24" fill="none" xmlns="http://www.w3.org/2000/svg">
<path d="M1.51611 7.87678C1.68021 9.82977 3.08944 11.452 5.0003 11.8875V19.0013H3.0003V21.0013H21.0003V19.0013H19.0003V11.8875C20.9111 11.452 22.3204 9.82977 22.4844 7.87678C21.994 7.95878 21.4975 8 21.0003 8C17.1862 8 13.7863 5.59592 12.515 2H11.4855C10.2142 5.59592 6.81435 8 3.0003 8C2.50302 8 2.00659 7.95878 1.51611 7.87678ZM17.0003 19.0013H7.0003V12H17.0003V19.0013ZM18.5558 9.93749L18.2815 10H5.71902L5.44476 9.93749C5.30869 9.90648 5.17833 9.86594 5.05369 9.81587C6.59036 9.53219 8.02285 8.92072 9.35117 7.98146C10.4077 7.23431 11.2908 6.35588 12.0003 5.34615C12.7098 6.35588 13.5928 7.23431 14.6494 7.98146C15.9777 8.92072 17.4102 9.53219 18.9469 9.81587C18.8223 9.86594 18.6919 9.90648 18.5558 9.93749Z" fill="black"/>
</svg>
