<svg width="24" height="24" viewBox="0 0 24 24" fill="none" xmlns="http://www.w3.org/2000/svg">
<path d="M20.9701 17.1716L19.5559 18.5858L16.0214 15.0513L15.9476 15.1251L15.2405 18.6606L13.8263 20.0748L9.58369 15.8322L4.63394 20.7819L3.21973 19.3677L8.16947 14.418L3.92683 10.1753L5.34105 8.7611L8.87658 8.05399L8.95029 7.98028L5.41373 4.44371L6.82794 3.0295L20.9701 17.1716ZM10.3645 9.39449L9.86261 9.8964L7.04072 10.4608L13.5409 16.9609L14.1052 14.139L14.6071 13.6371L10.3645 9.39449ZM18.7761 9.46821L17.4356 10.8087L18.8498 12.2229L20.1903 10.8824L20.8974 11.5895L22.3116 10.1753L13.8263 1.69003L12.4121 3.10425L13.1192 3.81135L11.7787 5.15185L13.1929 6.56607L14.5334 5.22557L18.7761 9.46821Z" fill="black"/>
</svg>
