<svg width="24" height="24" viewBox="0 0 24 24" fill="none" xmlns="http://www.w3.org/2000/svg">
<g clip-path="url(#clip0_119_31242)">
<path d="M17.2175 1.19072C15.6399 0.427875 13.87 0 12.0001 0C10.1303 0 8.36037 0.427875 6.78274 1.19072L5.73926 12L6.78274 22.8093C8.36037 23.5721 10.1303 24 12.0001 24C13.87 24 15.6399 23.5721 17.2175 22.8093L18.261 12L17.2175 1.19072Z" fill="#D80027"/>
<path d="M6.78263 1.19116C2.76872 3.13212 0 7.24254 0 12C0 16.7575 2.76872 20.8679 6.78263 22.8089V1.19116Z" fill="black"/>
<path d="M17.2173 1.19116V22.8089C21.2312 20.8679 23.9999 16.7575 23.9999 12C23.9999 7.24254 21.2312 3.13212 17.2173 1.19116Z" fill="#496E2D"/>
<path d="M12.0001 7.82605C9.69484 7.82605 7.82617 9.69477 7.82617 11.9999C7.82617 14.3051 9.69489 16.1738 12.0001 16.1738C14.3052 16.1738 16.174 14.3051 16.174 11.9999C16.174 9.69477 14.3053 7.82605 12.0001 7.82605ZM12.0001 14.6086C10.5593 14.6086 9.39138 13.4406 9.39138 11.9999C9.39138 10.5592 10.5594 9.39125 12.0001 9.39125C13.4408 9.39125 14.6088 10.5592 14.6088 11.9999C14.6088 13.4406 13.4408 14.6086 12.0001 14.6086Z" fill="#FFDA44"/>
<path d="M12 10.4347C11.4237 10.4347 10.9565 10.9018 10.9565 11.4782V13.0434H13.0435V11.4782C13.0435 10.9018 12.5764 10.4347 12 10.4347Z" fill="#FFDA44"/>
</g>
<defs>
<clipPath id="clip0_119_31242">
<rect width="24" height="24" fill="white"/>
</clipPath>
</defs>
</svg>
