<svg width="24" height="24" viewBox="0 0 24 24" fill="none" xmlns="http://www.w3.org/2000/svg">
<g clip-path="url(#clip0_119_31217)">
<path d="M12 24C18.6274 24 24 18.6274 24 12C24 5.37258 18.6274 0 12 0C5.37258 0 0 5.37258 0 12C0 18.6274 5.37258 24 12 24Z" fill="#D80027"/>
<path d="M18.7825 8.90663H14.436C14.7043 8.62566 14.8694 8.24527 14.8694 7.82607C14.8694 6.96165 14.1686 6.26086 13.3042 6.26086C12.7596 6.26086 12.2802 6.53911 11.9999 6.96104C11.7195 6.53911 11.2401 6.26086 10.6955 6.26086C9.8311 6.26086 9.13032 6.96165 9.13032 7.82607C9.13032 8.24527 9.29546 8.62571 9.56377 8.90663H5.21729C5.21729 10.0592 6.22121 10.9936 7.37372 10.9936H7.30416C7.30416 12.1462 8.23852 13.0806 9.39118 13.0806C9.39118 13.4539 9.48957 13.8038 9.66132 14.1068L7.93022 15.838L9.25838 17.1661L11.1424 15.2821C11.2162 15.3091 11.2925 15.3308 11.3714 15.3456L10.2329 17.916L11.9999 19.8261L13.7668 17.9159L12.6284 15.3455C12.7073 15.3308 12.7836 15.3091 12.8573 15.282L14.7413 17.166L16.0695 15.8378L14.3384 14.1067C14.5102 13.8038 14.6086 13.4537 14.6086 13.0804C15.7612 13.0804 16.6955 12.1461 16.6955 10.9934H16.626C17.7785 10.9935 18.7825 10.0592 18.7825 8.90663Z" fill="black"/>
</g>
<defs>
<clipPath id="clip0_119_31217">
<rect width="24" height="24" fill="white"/>
</clipPath>
</defs>
</svg>
