<svg width="24" height="24" viewBox="0 0 24 24" fill="none" xmlns="http://www.w3.org/2000/svg">
<g clip-path="url(#clip0_119_31255)">
<path d="M11.9998 0C18.6271 0 23.9998 5.37262 23.9998 12C23.9998 18.6274 18.6271 24 11.9998 24C11.9998 23.4783 10.4346 12 10.4346 12L11.9998 0Z" fill="#F0F0F0"/>
<path d="M12 24C5.37262 24 0 18.6274 0 12C0 5.37262 5.37262 0 12 0" fill="#496E2D"/>
<path d="M14.5781 9.69824L13.5936 11.055L11.999 10.5379L12.9852 11.8935L12.0007 13.2503L13.5946 12.7314L14.5808 14.087L14.5798 12.4107L16.1738 11.8917L14.5793 11.3746L14.5781 9.69824Z" fill="#D80027"/>
<path d="M12.9958 15.3913C11.1229 15.3913 9.6045 13.8729 9.6045 12C9.6045 10.127 11.1229 8.60867 12.9958 8.60867C13.5798 8.60867 14.1293 8.75633 14.609 9.0163C13.8564 8.28032 12.8272 7.82605 11.6915 7.82605C9.38625 7.82605 7.51758 9.69477 7.51758 11.9999C7.51758 14.3051 9.3863 16.1738 11.6915 16.1738C12.8273 16.1738 13.8564 15.7196 14.609 14.9836C14.1293 15.2436 13.5798 15.3913 12.9958 15.3913Z" fill="#D80027"/>
</g>
<defs>
<clipPath id="clip0_119_31255">
<rect width="24" height="24" fill="white"/>
</clipPath>
</defs>
</svg>
