<svg width="24" height="24" viewBox="0 0 24 24" fill="none" xmlns="http://www.w3.org/2000/svg">
<g clip-path="url(#clip0_119_31259)">
<path d="M6.78274 22.8093C8.36037 23.5721 10.1302 24 12.0001 24C13.87 24 15.6399 23.5721 17.2175 22.8093L18.261 12L17.2175 1.19072C15.6399 0.427875 13.87 0 12.0001 0C10.1302 0 8.36037 0.427875 6.78274 1.19072L5.73926 12L6.78274 22.8093Z" fill="#FFDA44"/>
<path d="M17.2178 22.8089C21.2317 20.868 24.0004 16.7575 24.0004 12C24.0004 7.24254 21.2317 3.13207 17.2178 1.19116V22.8089Z" fill="#D80027"/>
<path d="M6.78263 22.8089V1.19116C2.76867 3.13207 0 7.24249 0 12C0 16.7576 2.76867 20.868 6.78263 22.8089Z" fill="#0052B4"/>
<path d="M12 16.1739C12 14.259 12 12 12 12H15.1305V13.5652C15.1305 13.8371 14.6087 14.8335 13.3209 15.6522C12.8332 15.9623 12.3283 16.062 12 16.1739Z" fill="#D80027"/>
<path d="M8.86914 8.86951H11.9996V12H8.86914V8.86951Z" fill="#D80027"/>
<path d="M13.5653 7.82608C13.5653 7.24975 13.0981 6.78259 12.5218 6.78259C12.3315 6.78259 12.1536 6.83434 12.0001 6.92331C11.8465 6.83434 11.6687 6.78259 11.4783 6.78259C10.9021 6.78259 10.4349 7.24975 10.4349 7.82608H7.82617V13.0434C7.82617 14.9857 9.36864 16.109 10.5783 16.6913C10.4877 16.8459 10.4349 17.0252 10.4349 17.2174C10.4349 17.7937 10.9021 18.2609 11.4783 18.2609C11.6687 18.2609 11.8465 18.2091 12.0001 18.1202C12.1537 18.2091 12.3315 18.2609 12.5218 18.2609C13.0981 18.2609 13.5653 17.7937 13.5653 17.2174C13.5653 17.0252 13.5124 16.8459 13.4218 16.6913C14.6314 16.109 16.174 14.9858 16.174 13.0434V7.82608H13.5653ZM14.6088 13.0434C14.6088 13.3153 14.6088 14.1427 13.321 14.9614C12.8332 15.2716 12.3284 15.4727 12.0001 15.5845C11.6718 15.4727 11.1669 15.2716 10.6791 14.9614C9.39138 14.1427 9.39138 13.3153 9.39138 13.0434V9.39128H14.6088V13.0434Z" fill="#FF9811"/>
</g>
<defs>
<clipPath id="clip0_119_31259">
<rect width="24" height="24" fill="white"/>
</clipPath>
</defs>
</svg>
