<svg width="24" height="24" viewBox="0 0 24 24" fill="none" xmlns="http://www.w3.org/2000/svg">
<g clip-path="url(#clip0_119_31179)">
<path d="M24 12C24 18.6274 18.6274 24 12 24C5.37262 24 0 18.6274 0 12C0 12.0029 12 0.0013125 12 0C18.6274 0 24 5.37262 24 12Z" fill="#0052B4"/>
<path d="M11.9678 12H11.9999C11.9999 11.9892 11.9999 11.9787 11.9999 11.9679C11.9892 11.9786 11.9785 11.9893 11.9678 12Z" fill="#F0F0F0"/>
<path d="M12 6.26086C12 4.14937 12 2.76586 12 0H11.998C5.37145 0.001125 0 5.37323 0 12H6.26086V8.47448L9.78638 12H11.9679C11.9786 11.9893 11.9893 11.9786 12 11.9679C12 11.1594 12 10.4381 12 9.78647L8.47444 6.26086H12Z" fill="#F0F0F0"/>
<path d="M6.07124 1.56519C4.19441 2.63389 2.63409 4.19417 1.56543 6.071V12H4.69588V4.69573V4.69564H12.0002C12.0002 3.70831 12.0002 2.76772 12.0002 1.56519H6.07124Z" fill="#D80027"/>
<path d="M11.9999 10.5243L7.73637 6.26086H6.26074V6.26096L11.9998 12H11.9999C11.9999 12 11.9999 10.9824 11.9999 10.5243Z" fill="#D80027"/>
<path d="M20.2942 13.7566C20.6393 13.2819 20.8698 12.7021 20.8698 12V6.78266C20.4337 7.11022 19.8919 7.30438 19.3046 7.30438C18.4512 7.30438 17.6935 6.89455 17.2176 6.26099C16.7416 6.89455 15.984 7.30438 15.1306 7.30438C14.5433 7.30438 14.0014 7.11017 13.5654 6.78275V12C13.5654 12.7021 13.7959 13.2819 14.141 13.7566H20.2942Z" fill="#F3F3F3"/>
<path d="M19.208 11.032C19.3741 10.6267 19.5033 10.0344 19.5033 9.73958C19.5033 9.26591 18.8858 8.88196 18.8858 8.88196C18.8858 8.88196 18.2682 9.26591 18.2682 9.73958C18.2682 10.0344 18.3975 10.6268 18.5635 11.032L18.207 11.8369C18.4166 11.9221 18.6456 11.9695 18.8858 11.9695C19.1261 11.9695 19.355 11.9221 19.5646 11.8369L19.208 11.032Z" fill="#FF9811"/>
<path d="M16.7946 8.42586C16.3607 8.48464 15.783 8.6691 15.5278 8.81647C15.1176 9.05333 15.0938 9.78004 15.0938 9.78004C15.0938 9.78004 15.7351 10.1228 16.1452 9.88602C16.4006 9.7386 16.8489 9.3306 17.1167 8.9841L17.9922 8.89035C17.9612 8.66638 17.8875 8.44433 17.7675 8.23635C17.6474 8.02836 17.492 7.85361 17.3134 7.71472L16.7946 8.42586Z" fill="#FF9811"/>
<path d="M15.7445 11.8193C16.0123 12.1657 16.4608 12.5736 16.7162 12.7211C17.1264 12.9579 17.7677 12.6152 17.7677 12.6152C17.7677 12.6152 17.7437 11.8884 17.3336 11.6515C17.0782 11.5041 16.5007 11.3198 16.0667 11.2612L15.5479 10.5499C15.3694 10.6888 15.214 10.8636 15.0938 11.0714C14.9738 11.2795 14.9003 11.5014 14.8691 11.7256L15.7445 11.8193Z" fill="#FF9811"/>
<path d="M14.0117 13.5653C14.9862 15.1288 17.2175 15.6522 17.2175 15.6522C17.2175 15.6522 19.4487 15.1288 20.4232 13.5653H14.0117Z" fill="#338AF3"/>
</g>
<defs>
<clipPath id="clip0_119_31179">
<rect width="24" height="24" fill="white"/>
</clipPath>
</defs>
</svg>
