<svg width="24" height="24" viewBox="0 0 24 24" fill="none" xmlns="http://www.w3.org/2000/svg">
<g clip-path="url(#clip0_119_31185)">
<path d="M24 12C24 18.6274 18.6274 24 12 24C5.37262 24 0 18.6274 0 12C0 12.0028 12 0.00135937 12 0C18.6274 0 24 5.37262 24 12Z" fill="#0052B4"/>
<path d="M11.9678 12H11.9999C11.9999 11.9891 11.9999 11.9787 11.9999 11.9679C11.9892 11.9786 11.9785 11.9893 11.9678 12Z" fill="#F0F0F0"/>
<path d="M12 6.26086C12 4.14937 12 2.76577 12 0H11.998C5.3715 0.00107813 0 5.37319 0 12H6.26086V8.47439L9.78642 12H11.9679C11.9787 11.9893 11.9894 11.9786 12 11.9678C12 11.1594 12 10.438 12 9.78647L8.47444 6.26086H12Z" fill="#F0F0F0"/>
<path d="M6.07124 1.56519C4.19441 2.63389 2.63413 4.19417 1.56543 6.071V12H4.69588V4.69569V4.69564H12.0002C12.0002 3.70831 12.0002 2.76772 12.0002 1.56519H6.07124Z" fill="#D80027"/>
<path d="M12.0003 10.5243L7.7369 6.26089H6.26123C6.26123 6.26084 6.26123 6.26089 6.26123 6.26089L12.0003 11.9999H12.0003C12.0003 11.9999 12.0003 10.9825 12.0003 10.5243Z" fill="#D80027"/>
<path d="M7.23729 14.087L7.89588 15.4641L9.38309 15.1204L8.71709 16.4939L9.91305 17.4423L8.42398 17.778L8.42815 19.3044L7.23729 18.3494L6.04648 19.3044L6.05065 17.778L4.56152 17.4423L5.75754 16.4939L5.09145 15.1204L6.57874 15.4641L7.23729 14.087Z" fill="#F0F0F0"/>
<path d="M17.9663 16.6957L18.2956 17.3842L19.0392 17.2123L18.7062 17.8991L19.3042 18.3733L18.5596 18.5411L18.5617 19.3044L17.9663 18.8269L17.3709 19.3044L17.3729 18.5411L16.6284 18.3733L17.2264 17.8991L16.8934 17.2123L17.637 17.3842L17.9663 16.6957Z" fill="#F0F0F0"/>
<path d="M14.9033 9.39136L15.2326 10.08L15.9762 9.90801L15.6432 10.5948L16.2412 11.069L15.4967 11.2368L15.4987 12L14.9033 11.5225L14.3079 12L14.3099 11.2368L13.5654 11.069L14.1634 10.5948L13.8304 9.90801L14.574 10.08L14.9033 9.39136Z" fill="#F0F0F0"/>
<path d="M17.9663 5.21741L18.2956 5.906L19.0392 5.73411L18.7062 6.42088L19.3041 6.89506L18.5596 7.06292L18.5617 7.82614L17.9663 7.34863L17.3709 7.82614L17.3729 7.06292L16.6284 6.89506L17.2264 6.42088L16.8934 5.73411L17.637 5.906L17.9663 5.21741Z" fill="#F0F0F0"/>
<path d="M20.6421 8.3479L20.9714 9.03649L21.715 8.86456L21.382 9.55132L21.98 10.0256L21.2354 10.1934L21.2375 10.9566L20.6421 10.4791L20.0467 10.9566L20.0487 10.1934L19.3042 10.0256L19.9022 9.55132L19.5692 8.86456L20.3128 9.03649L20.6421 8.3479Z" fill="#F0F0F0"/>
<path d="M18.729 12L18.988 12.7972H19.8262L19.1481 13.2899L19.4072 14.087L18.729 13.5943L18.0509 14.087L18.3099 13.2899L17.6318 12.7972H18.47L18.729 12Z" fill="#F0F0F0"/>
</g>
<defs>
<clipPath id="clip0_119_31185">
<rect width="24" height="24" fill="white"/>
</clipPath>
</defs>
</svg>
