<svg width="24" height="24" viewBox="0 0 24 24" fill="none" xmlns="http://www.w3.org/2000/svg">
<g clip-path="url(#clip0_119_31266)">
<path d="M24 12C24 10.5321 23.736 9.12602 23.2536 7.82609L12 7.30432L0.746391 7.82604C0.264047 9.12602 0 10.5321 0 12C0 13.4678 0.264047 14.8739 0.746391 16.1739L12 16.6956L23.2536 16.1739C23.736 14.8739 24 13.4678 24 12Z" fill="#D80027"/>
<path d="M12.0002 24.0001C17.1598 24.0001 21.5583 20.7436 23.2538 16.174H0.746582C2.4421 20.7436 6.84061 24.0001 12.0002 24.0001Z" fill="#6DA544"/>
<path d="M0.746582 7.82611H23.2538C21.5583 3.2565 17.1598 0 12.0002 0C6.84061 0 2.4421 3.2565 0.746582 7.82611Z" fill="#338AF3"/>
<path d="M12.2605 15.3913C10.3875 15.3913 8.86915 13.8729 8.86915 12C8.86915 10.127 10.3875 8.60867 12.2605 8.60867C12.8444 8.60867 13.3939 8.75633 13.8737 9.0163C13.121 8.28032 12.0919 7.82605 10.9561 7.82605C8.6509 7.82605 6.78223 9.69477 6.78223 11.9999C6.78223 14.3051 8.65095 16.1738 10.9561 16.1738C12.0919 16.1738 13.1211 15.7196 13.8737 14.9836C13.3939 15.2436 12.8444 15.3913 12.2605 15.3913Z" fill="#F0F0F0"/>
<path d="M14.8693 9.6521L15.3185 10.9154L16.5295 10.3397L15.9538 11.5507L17.2171 11.9999L15.9538 12.4492L16.5295 13.6601L15.3185 13.0844L14.8693 14.3478L14.4202 13.0844L13.2091 13.6601L13.7849 12.4492L12.5215 11.9999L13.7849 11.5507L13.2091 10.3397L14.4202 10.9154L14.8693 9.6521Z" fill="#F0F0F0"/>
</g>
<defs>
<clipPath id="clip0_119_31266">
<rect width="24" height="24" fill="white"/>
</clipPath>
</defs>
</svg>
