<svg width="24" height="24" viewBox="0 0 24 24" fill="none" xmlns="http://www.w3.org/2000/svg">
<g clip-path="url(#clip0_119_31213)">
<path d="M12 0C18.6273 0 24 5.37261 24 12C24 18.6273 18.6273 24 12 24C5.37261 24 0 18.6273 0 12" fill="#FFDA44"/>
<path d="M11.7393 5.33341H21.9788C21.3046 4.32621 20.4818 3.42715 19.5419 2.66675H11.7393V5.33341Z" fill="#D80027"/>
<path d="M11.7393 10.6667H23.926C23.8237 9.74209 23.6165 8.84926 23.3164 8.00012H11.7393V10.6667Z" fill="#D80027"/>
<path d="M0.683874 16.0001H23.3163C23.6164 15.1509 23.8237 14.258 23.926 13.3334H0.0742188C0.176406 14.2581 0.383687 15.151 0.683874 16.0001Z" fill="#D80027"/>
<path d="M4.45828 21.3334H19.5419C20.4817 20.5731 21.3045 19.6739 21.9788 18.6667H2.02148C2.69573 19.6739 3.51848 20.573 4.45828 21.3334Z" fill="#D80027"/>
<path d="M12 0C5.37262 0 -4.68746e-05 5.37261 3.06725e-10 12.0001C2.73871 12 5.37261 12.0001 12 12.0001L12 0Z" fill="#4A1F63"/>
<path d="M9.91278 6.26089V7.30437H9.39106V6.26089H8.34757V7.30437H7.82586V5.21741H5.73889V7.30437H5.21713V6.26089H4.17369V7.30437H3.65193V6.26089H2.6084V9.39129H10.9563V6.26089H9.91278Z" fill="#F0F0F0"/>
</g>
<defs>
<clipPath id="clip0_119_31213">
<rect width="24" height="24" fill="white"/>
</clipPath>
</defs>
</svg>
