<svg width="24" height="24" viewBox="0 0 24 24" fill="none" xmlns="http://www.w3.org/2000/svg">
<g clip-path="url(#clip0_119_31198)">
<path d="M17.2175 1.19072C15.6399 0.427875 13.87 0 12.0001 0C10.1303 0 8.36037 0.427875 6.78274 1.19072L5.73926 12L6.78274 22.8093C8.36037 23.5721 10.1303 24 12.0001 24C13.87 24 15.6399 23.5721 17.2175 22.8093L18.261 12L17.2175 1.19072Z" fill="#FFDA44"/>
<path d="M6.78263 1.19116C2.76872 3.13207 0 7.24249 0 12C0 16.7576 2.76872 20.868 6.78263 22.8089V1.19116Z" fill="#0052B4"/>
<path d="M17.2178 1.19116V22.8089C21.2317 20.868 24.0004 16.7575 24.0004 12C24.0004 7.24254 21.2317 3.13207 17.2178 1.19116Z" fill="#0052B4"/>
<path d="M15.6518 7.30435L16.3518 7.65432L15.6518 7.30435L14.9518 6.95438C14.9096 7.0388 13.9956 8.89847 13.8463 11.7391H12.7822V7.30435L11.9996 6.26086L11.217 7.30435V11.7391H10.153C10.0036 8.89847 9.08966 7.0388 9.04743 6.95438L7.64746 7.65436C7.65712 7.67358 8.60835 9.60976 8.60835 12.5218V13.3044H11.217V17.7392H12.7822V13.3044H15.3909V12.5217C15.3909 11.0162 15.6514 9.77475 15.87 8.99841C16.1083 8.15185 16.3503 7.65746 16.3527 7.65254L15.6518 7.30435Z" fill="black"/>
</g>
<defs>
<clipPath id="clip0_119_31198">
<rect width="24" height="24" fill="white"/>
</clipPath>
</defs>
</svg>
