<svg width="24" height="24" viewBox="0 0 24 24" fill="none" xmlns="http://www.w3.org/2000/svg">
<g clip-path="url(#clip0_119_31196)">
<path d="M12 24C18.6274 24 24 18.6274 24 12C24 5.37258 18.6274 0 12 0C5.37258 0 0 5.37258 0 12C0 18.6274 5.37258 24 12 24Z" fill="#FCFCFC"/>
<path d="M4.95669 11.1305L3.65234 8.76408L4.95669 6.43481L6.26103 8.76408L4.95669 11.1305Z" fill="#A2001D"/>
<path d="M2.3478 11.1305L1.04346 8.76408L2.3478 6.43481L3.65214 8.76408L2.3478 11.1305Z" fill="#A2001D"/>
<path d="M4.95669 17.5653L3.65234 15.1989L4.95669 12.8696L6.26103 15.1989L4.95669 17.5653Z" fill="#A2001D"/>
<path d="M2.3478 17.5653L1.04346 15.1989L2.3478 12.8696L3.65214 15.1989L2.3478 17.5653Z" fill="#A2001D"/>
<path d="M6.26089 2.32936L5.89161 1.66992C5.22927 2.06236 4.60804 2.51672 4.03564 3.02503L4.95655 4.6957L6.26089 2.32936Z" fill="#A2001D"/>
<path d="M4.95653 19.3044L4.02588 20.9664C4.59775 21.4754 5.21857 21.9305 5.88063 22.3237L6.26093 21.6338L4.95653 19.3044Z" fill="#A2001D"/>
<path d="M7.3042 15.1305V23.0459C8.7465 23.6599 10.3334 24 11.9999 24C17.1594 24 21.5579 20.7435 23.2535 16.1739L7.3042 15.1305Z" fill="#6DA544"/>
<path d="M23.2535 16.1739C23.7359 14.8739 23.9999 13.4678 23.9999 12C23.9999 5.37263 18.6272 0 11.9999 0C10.3335 0 8.7465 0.339984 7.3042 0.953813V16.1739H23.2535V16.1739Z" fill="#A2001D"/>
</g>
<defs>
<clipPath id="clip0_119_31196">
<rect width="24" height="24" fill="white"/>
</clipPath>
</defs>
</svg>
