<svg width="24" height="24" viewBox="0 0 24 24" fill="none" xmlns="http://www.w3.org/2000/svg">
<g clip-path="url(#clip0_119_31191)">
<path d="M24 12C24 7.8815 21.9249 4.24808 18.7635 2.08695L12 1.56519L5.23655 2.0869C2.07516 4.24808 0 7.88155 0 12C0 16.1186 2.07516 19.7519 5.23655 21.913L12 22.4348L18.7635 21.9131C21.9249 19.7519 24 16.1186 24 12Z" fill="#0052B4"/>
<path d="M18.7632 2.08697C16.8374 0.770437 14.5087 0 11.9998 0C9.49089 0 7.16219 0.770437 5.23633 2.08697H18.7632Z" fill="#A2001D"/>
<path d="M5.23633 21.9131C7.16214 23.2296 9.49089 24.0001 11.9998 24.0001C14.5087 24.0001 16.8374 23.2296 18.7632 21.9131H5.23633Z" fill="#A2001D"/>
<path d="M11.9999 17.7391C15.1695 17.7391 17.739 15.1696 17.739 12C17.739 8.83036 15.1695 6.26086 11.9999 6.26086C8.83024 6.26086 6.26074 8.83036 6.26074 12C6.26074 15.1696 8.83024 17.7391 11.9999 17.7391Z" fill="#F0F0F0"/>
<path d="M11.9999 16.6956C14.5932 16.6956 16.6955 14.5933 16.6955 12C16.6955 9.40664 14.5932 7.30432 11.9999 7.30432C9.40652 7.30432 7.3042 9.40664 7.3042 12C7.3042 14.5933 9.40652 16.6956 11.9999 16.6956Z" fill="#6DA544"/>
<path d="M12.0001 15.1304C13.729 15.1304 15.1305 13.7289 15.1305 12C15.1305 10.2711 13.729 8.86951 12.0001 8.86951C10.2712 8.86951 8.86963 10.2711 8.86963 12C8.86963 13.7289 10.2712 15.1304 12.0001 15.1304Z" fill="#F0F0F0"/>
<path d="M11.9999 11.2174L10.3042 12V13.3044L11.9999 14.3479L13.6955 13.3044V12L11.9999 11.2174Z" fill="#0052B4"/>
<path d="M10.3042 10.4348H13.6955V12H10.3042V10.4348Z" fill="#FFDA44"/>
</g>
<defs>
<clipPath id="clip0_119_31191">
<rect width="24" height="24" fill="white"/>
</clipPath>
</defs>
</svg>
