<svg width="24" height="24" viewBox="0 0 24 24" fill="none" xmlns="http://www.w3.org/2000/svg">
<g clip-path="url(#clip0_119_31188)">
<path d="M20.4853 20.4854C15.799 25.1716 8.20104 25.1716 3.51471 20.4854C-1.17157 15.7991 -1.17157 8.20105 3.51471 3.51473C3.5164 3.51473 14.2987 0.328772 18.985 5.01505C23.6713 9.70134 20.4885 20.4821 20.4853 20.4854Z" fill="#FFDA44"/>
<path d="M20.4852 20.4854C25.1715 15.7991 25.1715 8.20106 20.4852 3.51473C15.7989 -1.1716 8.20098 -1.17155 3.51465 3.51473L20.4852 20.4854Z" fill="#D80027"/>
<path d="M15.1362 15.1379C14.6433 15.3315 14.0705 15.3109 13.5736 15.0321C12.6956 14.5393 12.3822 13.424 12.8751 12.5459L12.7255 12.462C14.2288 12.0995 15.341 10.735 15.3215 9.12471C15.3094 8.1236 14.8621 7.22796 14.1624 6.61511L13.0668 7.73758C13.481 8.06767 13.7495 8.57402 13.7564 9.14369C13.7686 10.1506 12.9595 10.9796 11.9526 10.9918L11.9547 11.1632C10.8891 10.0426 9.15138 9.76169 7.76665 10.5837C6.90574 11.0948 6.35384 11.9299 6.17285 12.8424L7.69273 13.23C7.77152 12.7062 8.0757 12.2205 8.56559 11.9297C9.43141 11.4157 10.554 11.702 11.068 12.5678L11.2155 12.4803C10.7778 13.9633 11.4034 15.6087 12.8077 16.397C13.6808 16.887 14.68 16.9474 15.5606 16.648L15.1362 15.1379ZM11.9652 12.035L11.9651 12.0351L11.9652 12.035Z" fill="#FF9811"/>
<path d="M16.4427 8.12729L15.5946 11.1541L13.0497 10.6841L11.4116 7.3075L6.98629 8.87785L6.6373 7.89442L5.47949 7.75178L6.35188 10.2103L9.3973 9.43145L10.2628 11.8703L8.15751 14.9772L11.7302 18.0244L11.053 18.8183L11.5084 19.8924L13.2014 17.9076L11.0042 15.6596L12.6836 13.6907L16.4269 13.9604L17.2795 9.34276L18.3057 9.53228L19.0083 8.60087L16.4427 8.12729ZM11.9987 12.0817V12.0818V12.0817Z" fill="#FFEACF"/>
</g>
<defs>
<clipPath id="clip0_119_31188">
<rect width="24" height="24" fill="white"/>
</clipPath>
</defs>
</svg>
