<svg width="24" height="24" viewBox="0 0 24 24" fill="none" xmlns="http://www.w3.org/2000/svg">
<g clip-path="url(#clip0_119_31202)">
<path d="M12 24C18.6274 24 24 18.6274 24 12C24 5.37258 18.6274 0 12 0C5.37258 0 0 5.37258 0 12C0 18.6274 5.37258 24 12 24Z" fill="#6DA544"/>
<path d="M11.9999 4.69568L21.913 12L11.9999 19.3044L2.08691 12L11.9999 4.69568Z" fill="#FFDA44"/>
<path d="M12.0001 16.1738C14.3052 16.1738 16.174 14.3051 16.174 11.9999C16.174 9.69476 14.3052 7.82605 12.0001 7.82605C9.69489 7.82605 7.82617 9.69476 7.82617 11.9999C7.82617 14.3051 9.69489 16.1738 12.0001 16.1738Z" fill="#F0F0F0"/>
<path d="M9.91325 11.7391C9.18743 11.7391 8.48698 11.8495 7.82764 12.0544C7.85684 14.3344 9.71328 16.1739 12.0002 16.1739C13.4143 16.1739 14.6633 15.47 15.4183 14.3942C14.1266 12.7771 12.139 11.7391 9.91325 11.7391Z" fill="#0052B4"/>
<path d="M16.0966 12.7996C16.1469 12.5407 16.174 12.2735 16.174 11.9999C16.174 9.69472 14.3053 7.82605 12.0001 7.82605C10.2801 7.82605 8.80355 8.86672 8.16455 10.3526C8.72939 10.2355 9.31421 10.1739 9.91322 10.1739C12.3375 10.1738 14.5306 11.1815 16.0966 12.7996Z" fill="#0052B4"/>
</g>
<defs>
<clipPath id="clip0_119_31202">
<rect width="24" height="24" fill="white"/>
</clipPath>
</defs>
</svg>
