<svg width="24" height="24" viewBox="0 0 24 24" fill="none" xmlns="http://www.w3.org/2000/svg">
<g clip-path="url(#clip0_119_31170)">
<path d="M12 24C18.6274 24 24 18.6274 24 12C24 5.37258 18.6274 0 12 0C5.37258 0 0 5.37258 0 12C0 18.6274 5.37258 24 12 24Z" fill="#F0F0F0"/>
<path d="M21.9999 13.4361C20.9999 13.4361 20.9999 12.5217 19.9998 12.5217C18.9999 12.5217 18.9999 13.4361 17.9999 13.4361C17 13.4361 16.9999 12.5217 16 12.5217C15 12.5217 15 13.4361 14 13.4361C13 13.4361 12.9999 12.5217 11.9998 12.5217C10.9998 12.5217 10.9998 13.4361 9.99991 13.4361C9.00006 13.4361 9.00006 12.5217 8.00008 12.5217C7 12.5217 7 13.4361 5.99992 13.4361C4.99984 13.4361 4.99984 12.5217 3.99977 12.5217C2.99992 12.5217 2.99992 13.4361 1.99994 13.4361C1.00534 13.4361 0.999578 12.5318 0.015625 12.5222C0.0433281 13.071 0.108859 13.6099 0.207953 14.1369C1.00502 14.254 1.07481 15.036 2.00003 15.036C3.00002 15.036 3.00002 14.1218 3.99986 14.1218C4.99994 14.1218 4.99994 15.036 6.00002 15.036C7.00009 15.036 7.00009 14.1218 8.00017 14.1218C9.00016 14.1218 9.00016 15.036 10 15.036C11 15.036 11 14.1218 11.9999 14.1218C13 14.1218 13 15.036 14.0001 15.036C15.0002 15.036 15.0002 14.1218 16.0001 14.1218C17.0001 14.1218 17.0001 15.036 18 15.036C19 15.036 19 14.1218 19.9999 14.1218C21 14.1218 21 15.036 22 15.036C22.9252 15.036 22.995 14.254 23.7921 14.1369C23.8913 13.6099 23.9567 13.0711 23.9845 12.5222C23.0004 12.5319 22.9945 13.4361 21.9999 13.4361Z" fill="#0052B4"/>
<path d="M19.9998 15.6522C18.9998 15.6522 18.9998 16.5666 17.9999 16.5666C16.9999 16.5666 16.9999 15.6522 15.9999 15.6522C15 15.6522 15 16.5666 13.9999 16.5666C12.9998 16.5666 12.9998 15.6522 11.9998 15.6522C10.9998 15.6522 10.9998 16.5666 9.99985 16.5666C9 16.5666 9 15.6522 8.00002 15.6522C6.99994 15.6522 6.99994 16.5666 5.99986 16.5666C4.99979 16.5666 4.99979 15.6522 3.99971 15.6522C2.99986 15.6522 2.99986 16.5666 1.99988 16.5666C1.26324 16.5666 1.06875 16.0707 0.617676 15.8095C0.890863 16.6261 1.24969 17.4032 1.68305 18.1309C1.77689 18.1535 1.88124 18.1665 1.99983 18.1665C2.99982 18.1665 2.99982 17.2523 3.99966 17.2523C4.99974 17.2523 4.99974 18.1665 5.99982 18.1665C6.99989 18.1665 6.9999 17.2523 7.99997 17.2523C8.99996 17.2523 8.99996 18.1665 9.9998 18.1665C10.9998 18.1665 10.9998 17.2523 11.9997 17.2523C12.9998 17.2523 12.9998 18.1665 13.9999 18.1665C15 18.1665 15 17.2523 15.9999 17.2523C16.9999 17.2523 16.9999 18.1665 17.9998 18.1665C18.9998 18.1665 18.9998 17.2523 19.9997 17.2523C20.9998 17.2523 20.9998 18.1665 21.9998 18.1665C22.1184 18.1665 22.2229 18.1535 22.3168 18.1308C22.7502 17.4032 23.109 16.626 23.3821 15.8096C22.931 16.0708 22.7365 16.5666 21.9998 16.5666C20.9999 16.5666 20.9999 15.6522 19.9998 15.6522Z" fill="#0052B4"/>
<path d="M23.7207 9.41915C22.9897 9.57089 22.8965 10.3057 21.9997 10.3057C20.9997 10.3057 20.9997 9.39136 19.9997 9.39136C18.9997 9.39136 18.9997 10.3057 17.9997 10.3057C16.9998 10.3057 16.9998 9.39136 15.9998 9.39136C14.9998 9.39136 14.9998 10.3057 13.9998 10.3057C12.9998 10.3057 12.9997 9.39136 11.9997 9.39136C11.4593 9.39136 11.2109 9.65826 10.939 9.9037V11.5037C11.2109 11.2583 11.4593 10.9914 11.9997 10.9914C12.9997 10.9914 12.9997 11.9057 13.9998 11.9057C14.9999 11.9057 14.9999 10.9914 15.9998 10.9914C16.9998 10.9914 16.9998 11.9057 17.9997 11.9057C18.9997 11.9057 18.9997 10.9914 19.9997 10.9914C20.9997 10.9914 20.9997 11.9057 21.9997 11.9057C22.9249 11.9057 22.9947 11.1237 23.7919 11.0066C23.8429 11.0066 23.9 11.0061 23.9585 11.0054C23.9142 10.4657 23.834 9.93623 23.7207 9.41915Z" fill="#0052B4"/>
<path d="M22.844 6.8566C22.6368 7.03065 22.3973 7.17521 21.9997 7.17521C20.9997 7.17521 20.9997 6.26086 19.9997 6.26086C18.9997 6.26086 18.9997 7.17521 17.9997 7.17521C16.9998 7.17521 16.9998 6.26086 15.9998 6.26086C14.9998 6.26086 14.9998 7.17521 13.9998 7.17521C12.9998 7.17521 12.9997 6.26086 11.9997 6.26086C11.4593 6.26086 11.2109 6.52777 10.939 6.77321V8.37319C11.2109 8.1278 11.4593 7.86094 11.9997 7.86094C12.9997 7.86094 12.9997 8.77519 13.9998 8.77519C14.9998 8.77519 14.9998 7.86094 15.9998 7.86094C16.9998 7.86094 16.9998 8.77519 17.9997 8.77519C18.9996 8.77519 18.9996 7.86094 19.9996 7.86094C20.9997 7.86094 20.9997 8.77519 21.9996 8.77519C22.7092 8.77519 22.9159 8.31558 23.333 8.0483C23.1909 7.64063 23.0276 7.2429 22.844 6.8566Z" fill="#0052B4"/>
<path d="M20.0851 3.13293C20.0574 3.13143 20.0291 3.13049 19.9997 3.13049C18.9997 3.13049 18.9997 4.04484 17.9998 4.04484C16.9998 4.04484 16.9998 3.13049 15.9999 3.13049C14.9999 3.13049 14.9999 4.04484 13.9998 4.04484C12.9997 4.04484 12.9997 3.13049 11.9997 3.13049C11.4593 3.13049 11.2109 3.3974 10.939 3.64284V5.24282C11.2109 4.99743 11.4593 4.73057 11.9997 4.73057C12.9997 4.73057 12.9997 5.64482 13.9998 5.64482C14.9999 5.64482 14.9999 4.73057 15.9998 4.73057C16.9998 4.73057 16.9998 5.64482 17.9997 5.64482C18.9997 5.64482 18.9997 4.73057 19.9997 4.73057C20.9997 4.73057 20.9997 5.64482 21.9997 5.64482C22.0613 5.64482 22.1188 5.64117 22.1733 5.63465C21.5924 4.70821 20.8891 3.86648 20.0851 3.13293Z" fill="#0052B4"/>
<path d="M15.0673 0.39631C14.7928 0.643247 14.5448 0.914466 14.0001 0.914466C13.0001 0.914466 13.0001 0.00021582 12 0.00012207H11.9998C11.4827 0.000168945 11.2331 0.244716 10.9741 0.480919V2.08095C11.233 1.84475 11.4828 1.60015 12 1.60015C13.0001 1.60015 13.0001 2.5144 14.0002 2.5144C15.0002 2.5144 15.0002 1.60015 16.0002 1.60015C17.0002 1.60015 17.0002 2.5144 18.0001 2.5144C18.4197 2.5144 18.6631 2.35334 18.8783 2.1665C17.7376 1.36704 16.4514 0.761138 15.0673 0.39631Z" fill="#0052B4"/>
<path d="M13.9998 22.8274C12.9997 22.8274 12.9997 21.913 11.9996 21.913C10.9997 21.913 10.9997 22.8274 9.99972 22.8274C8.99988 22.8274 8.99988 21.913 7.99989 21.913C7.23391 21.913 7.05424 22.449 6.56299 22.7001C7.91768 23.3899 9.42082 23.8295 11.0118 23.9592C11.2578 23.7344 11.5077 23.513 11.9996 23.513C12.4917 23.513 12.7416 23.7344 12.9877 23.9592C14.5787 23.8296 16.0819 23.3899 17.4367 22.7002C16.9453 22.4491 16.7657 21.913 15.9998 21.913C14.9999 21.913 14.9999 22.8274 13.9998 22.8274Z" fill="#0052B4"/>
<path d="M17.9998 19.6969C16.9998 19.6969 16.9998 18.7826 15.9999 18.7826C14.9999 18.7826 14.9999 19.6969 13.9998 19.6969C12.9998 19.6969 12.9998 18.7826 11.9997 18.7826C10.9997 18.7826 10.9997 19.6969 9.99976 19.6969C8.99992 19.6969 8.99992 18.7826 7.99993 18.7826C6.99986 18.7826 6.99986 19.6969 5.99978 19.6969C4.9997 19.6969 4.9997 18.7826 3.99962 18.7826C3.28051 18.7826 3.07857 19.2556 2.6499 19.5211C2.91859 19.8548 3.20425 20.1742 3.50654 20.477C3.64196 20.4191 3.80087 20.3826 3.99957 20.3826C4.99965 20.3826 4.99965 21.2969 5.99973 21.2969C6.99981 21.2969 6.99981 20.3826 7.99989 20.3826C8.99987 20.3826 8.99987 21.2969 9.99971 21.2969C10.9997 21.2969 10.9997 20.3826 11.9996 20.3826C12.9997 20.3826 12.9997 21.2969 13.9998 21.2969C14.9999 21.2969 14.9999 20.3826 15.9998 20.3826C16.9997 20.3826 16.9998 21.2969 17.9997 21.2969C18.9997 21.2969 18.9997 20.3826 19.9997 20.3826C20.1986 20.3826 20.3575 20.4191 20.493 20.4771C20.7954 20.1742 21.081 19.8548 21.3497 19.5212C20.921 19.2557 20.719 18.7826 19.9997 18.7826C18.9997 18.7826 18.9997 19.6969 17.9998 19.6969Z" fill="#0052B4"/>
<path d="M11.9678 12H11.9999C11.9999 11.9892 11.9999 11.9787 11.9999 11.9679C11.9892 11.9786 11.9785 11.9893 11.9678 12Z" fill="#F0F0F0"/>
<path d="M12.0001 6.26085V9.78646L7.82617 5.73914L12.0001 6.26085Z" fill="#0052B4"/>
<path d="M6.26102 12H9.78649L6.26098 7.30432L5.73926 10.9565L6.26102 12Z" fill="#0052B4"/>
<path d="M12 6.26086C12 4.14937 12 2.76586 12 0H11.998C5.3715 0.001125 0 5.37323 0 12H6.26091V8.47448L9.78638 12H11.9679C11.9786 11.9893 11.9893 11.9786 12 11.9679C12 11.1594 12 10.4381 12 9.78647L8.47444 6.26086H12Z" fill="#F0F0F0"/>
<path d="M6.07124 1.56519C4.19441 2.63389 2.63413 4.19417 1.56543 6.071V12H4.69588V4.69573V4.69564H12.0002C12.0002 3.70831 12.0002 2.76772 12.0002 1.56519H6.07124Z" fill="#D80027"/>
<path d="M12.0004 10.5243L7.73686 6.26086H6.26123V6.26096L12.0003 12H12.0004C12.0004 12 12.0004 10.9824 12.0004 10.5243Z" fill="#D80027"/>
<path d="M15.6523 6.26086H20.348L18.0002 8.60869L15.6523 6.26086Z" fill="#6DA544"/>
<path d="M17.4785 8.08691H18.522V10.9565H17.4785V8.08691Z" fill="#A2001D"/>
<path d="M17.4785 15.6521H18.522V18.5216H17.4785V15.6521Z" fill="#A2001D"/>
<path d="M21.1305 14.087C21.1305 13.2226 20.4297 12.5218 19.5653 12.5218C19.1643 12.5218 18.7988 12.6727 18.5218 12.9206V12H19.0435V10.9565H18.5218V10.4348H17.4783V10.9565H16.9566V12H17.4783V12.9206C17.2013 12.6727 16.8358 12.5218 16.4348 12.5218C15.5704 12.5218 14.8696 13.2226 14.8696 14.087C14.8696 14.5504 15.0712 14.9667 15.3913 15.2533V16.174H20.6087V15.2533C20.9289 14.9667 21.1305 14.5504 21.1305 14.087Z" fill="#FFDA44"/>
<path d="M19.5652 13.5652C19.4006 13.5652 19.2854 13.6375 19.2177 13.698L18.5217 14.321H17.4783L16.7823 13.698C16.7146 13.6375 16.5994 13.5652 16.4348 13.5652C16.1471 13.5652 15.9131 13.7992 15.9131 14.0869C15.9131 14.2895 16.0224 14.4176 16.0875 14.4759L16.4349 14.787V15.1304H19.5653V14.787L19.9127 14.4759C19.9778 14.4176 20.0871 14.2895 20.0871 14.0869C20.087 13.7992 19.8529 13.5652 19.5652 13.5652Z" fill="#D80027"/>
</g>
<defs>
<clipPath id="clip0_119_31170">
<rect width="24" height="24" fill="white"/>
</clipPath>
</defs>
</svg>
