<svg width="24" height="24" viewBox="0 0 24 24" fill="none" xmlns="http://www.w3.org/2000/svg">
<g clip-path="url(#clip0_119_31199)">
<path d="M12 24C18.6274 24 24 18.6274 24 12C24 5.37258 18.6274 0 12 0C5.37258 0 0 5.37258 0 12C0 18.6274 5.37258 24 12 24Z" fill="#F0F0F0"/>
<path d="M19.3067 2.4798C15.0105 -0.826105 8.98955 -0.826105 4.69336 2.47976L12 9.78644L19.3067 2.4798Z" fill="#D80027"/>
<path d="M12 14.2136L4.69336 21.5202C8.98955 24.8261 15.0105 24.8261 19.3067 21.5202L12 14.2135L12 14.2136Z" fill="#D80027"/>
<path d="M9.78607 12L2.47943 4.69336C-0.826477 8.98955 -0.826477 15.0105 2.47943 19.3067L9.78607 12Z" fill="#6DA544"/>
<path d="M14.2129 12L21.5195 19.3067C24.8254 15.0105 24.8254 8.98955 21.5195 4.69336L14.2129 12Z" fill="#6DA544"/>
<path d="M11.9996 17.2173C14.8811 17.2173 17.217 14.8814 17.217 12C17.217 9.11849 14.8811 6.78259 11.9996 6.78259C9.11812 6.78259 6.78223 9.11849 6.78223 12C6.78223 14.8814 9.11812 17.2173 11.9996 17.2173Z" fill="#F0F0F0"/>
<path d="M12 8.34778L12.4518 9.1304H13.3555L12.9037 9.91298L13.3555 10.6956H12.4518L12 11.4782L11.5482 10.6956H10.6445L11.0964 9.91298L10.6445 9.1304H11.5482L12 8.34778Z" fill="#D80027"/>
<path d="M9.70319 12L10.155 12.7826H11.0587L10.6068 13.5652L11.0587 14.3478H10.155L9.70319 15.1305L9.25131 14.3478H8.34766L8.79948 13.5652L8.34766 12.7826H9.25131L9.70319 12Z" fill="#D80027"/>
<path d="M14.2969 12L14.7488 12.7826H15.6524L15.2006 13.5652L15.6524 14.3478H14.7488L14.2969 15.1305L13.8451 14.3478H12.9414L13.3932 13.5652L12.9414 12.7826H13.8451L14.2969 12Z" fill="#D80027"/>
</g>
<defs>
<clipPath id="clip0_119_31199">
<rect width="24" height="24" fill="white"/>
</clipPath>
</defs>
</svg>
