<svg width="24" height="24" viewBox="0 0 24 24" fill="none" xmlns="http://www.w3.org/2000/svg">
<g clip-path="url(#clip0_119_31209)">
<path d="M11.9999 0C10.532 0 9.1259 0.264047 7.82596 0.746391L7.3042 12L7.82592 23.2536C9.1259 23.736 10.532 24 11.9999 24C13.4677 24 14.8738 23.736 16.1737 23.2536L16.6955 12L16.1738 0.746391C14.8738 0.264047 13.4677 0 11.9999 0V0Z" fill="#338AF3"/>
<path d="M23.9999 11.9999C23.9999 6.84037 20.7434 2.44185 16.1738 0.746338V23.2536C20.7434 21.558 23.9999 17.1595 23.9999 11.9999Z" fill="#FFDA44"/>
<path d="M7.82611 23.2536V0.746338C3.2565 2.44185 0 6.84037 0 11.9999C0 17.1595 3.2565 21.558 7.82611 23.2536Z" fill="#F0F0F0"/>
</g>
<defs>
<clipPath id="clip0_119_31209">
<rect width="24" height="24" fill="white"/>
</clipPath>
</defs>
</svg>
