<svg width="24" height="24" viewBox="0 0 24 24" fill="none" xmlns="http://www.w3.org/2000/svg">
<g clip-path="url(#clip0_119_31146)">
<path d="M12 24C18.6274 24 24 18.6274 24 12C24 5.37258 18.6274 0 12 0C5.37258 0 0 5.37258 0 12C0 18.6274 5.37258 24 12 24Z" fill="#F0F0F0"/>
<path d="M11.9999 23.9999C15.637 23.9999 18.8959 22.3816 21.0965 19.826H2.90332C5.10396 22.3816 8.36285 23.9999 11.9999 23.9999Z" fill="#0052B4"/>
<path d="M24 12C24 5.37262 18.6274 0 12 0C5.37262 0 0 5.37262 0 12C0 13.0831 0.144375 14.1323 0.413391 15.1305H23.5867C23.8556 14.1323 24 13.0831 24 12Z" fill="#0052B4"/>
<path d="M0.953613 16.6957C1.18494 17.2392 1.45536 17.762 1.76113 18.2609H22.2386C22.5442 17.7619 22.8147 17.2392 23.0461 16.6957H0.953613Z" fill="#D80027"/>
<path d="M8.57773 12.7826L8.77198 13.3804H9.40062L8.89207 13.75L9.08632 14.3478L8.57773 13.9783L8.06913 14.3478L8.26343 13.75L7.75488 13.3804H8.38352L8.57773 12.7826Z" fill="#FFDA44"/>
<path d="M8.57773 20.6086L8.77198 21.2065H9.40062L8.89207 21.576L9.08632 22.1738L8.57773 21.8044L8.06913 22.1738L8.26343 21.576L7.75488 21.2065H8.38352L8.57773 20.6086Z" fill="#FFDA44"/>
<path d="M4.93466 17.9619L5.12891 18.5597H5.75755L5.249 18.9292L5.44325 19.5271L4.93466 19.1576L4.42607 19.5271L4.62041 18.9292L4.11182 18.5597H4.74041L4.93466 17.9619Z" fill="#FFDA44"/>
<path d="M6.32631 13.5652L6.52056 14.1631H7.14915L6.64065 14.5325L6.8349 15.1304L6.32631 14.7609L5.81771 15.1304L6.01206 14.5325L5.50342 14.1631H6.13206L6.32631 13.5652Z" fill="#FFDA44"/>
<path d="M4.11182 16.0273L4.74032 16.0273L4.93461 15.4293L5.12891 16.0273L5.75755 16.0272L5.24896 16.3967L5.44325 16.9946L4.93461 16.6251L4.42607 16.9945L4.62032 16.3967L4.11182 16.0273Z" fill="#FFDA44"/>
<path d="M5.81781 21.277L6.01206 20.6793L5.50342 20.3098H6.13206L6.32636 19.7119L6.52065 20.3098H7.14925L6.64065 20.6792L6.8349 21.2772L6.32631 20.9076L5.81781 21.277Z" fill="#FFDA44"/>
<path d="M12.2193 17.9619L12.0251 18.5597H11.3965L11.905 18.9292L11.7107 19.5271L12.2193 19.1576L12.7279 19.5271L12.5336 18.9292L13.0422 18.5597H12.4136L12.2193 17.9619Z" fill="#FFDA44"/>
<path d="M10.8277 13.5652L10.6335 14.1631H10.0049L10.5134 14.5325L10.3191 15.1304L10.8277 14.7609L11.3363 15.1304L11.142 14.5325L11.6506 14.1631H11.022L10.8277 13.5652Z" fill="#FFDA44"/>
<path d="M13.0422 16.0273L12.4137 16.0273L12.2194 15.4293L12.0251 16.0273L11.3965 16.0272L11.905 16.3967L11.7107 16.9946L12.2194 16.6251L12.7279 16.9945L12.5337 16.3967L13.0422 16.0273Z" fill="#FFDA44"/>
<path d="M11.3363 21.277L11.1421 20.6793L11.6507 20.3098H11.0221L10.8278 19.7119L10.6335 20.3098H10.0049L10.5135 20.6792L10.3192 21.2772L10.8278 20.9076L11.3363 21.277Z" fill="#FFDA44"/>
</g>
<defs>
<clipPath id="clip0_119_31146">
<rect width="24" height="24" fill="white"/>
</clipPath>
</defs>
</svg>
