<svg width="24" height="24" viewBox="0 0 24 24" fill="none" xmlns="http://www.w3.org/2000/svg">
<g clip-path="url(#clip0_119_31244)">
<path d="M12 24C18.6274 24 24 18.6274 24 12C24 5.37258 18.6274 0 12 0C5.37258 0 0 5.37258 0 12C0 18.6274 5.37258 24 12 24Z" fill="#F0F0F0"/>
<path d="M22.5406 6.26084C20.99 3.41886 18.3236 1.27344 15.1301 0.41272L14.6084 6.26084H22.5406Z" fill="#0052B4"/>
<path d="M1.45898 6.26084H9.39117L8.86945 0.41272C5.676 1.27344 3.00966 3.41891 1.45898 6.26084Z" fill="#0052B4"/>
<path d="M14.6089 12V17.7391H22.5411C23.4713 16.0342 24.0002 14.0789 24.0002 12H14.6089Z" fill="#6DA544"/>
<path d="M9.39131 12H0C0 14.0789 0.528891 16.0342 1.45908 17.7391H9.39127V12H9.39131Z" fill="#6DA544"/>
<path d="M1.45898 17.7391C3.00966 20.5811 5.676 22.7265 8.86945 23.5873L9.39117 18.4728L1.45898 17.7391Z" fill="#FFDA44"/>
<path d="M15.1301 23.5873C18.3236 22.7265 20.99 20.5811 22.5406 17.7391L14.6084 18.4727L15.1301 23.5873Z" fill="#FFDA44"/>
<path d="M14.6084 18.4727L22.5406 17.7391H14.6084V18.4727Z" fill="#FFDA44"/>
<path d="M9.39122 17.7391H1.45898L9.39122 18.4727V17.7391Z" fill="#FFDA44"/>
<path d="M12.0001 0C10.9169 0 9.86779 0.144375 8.86963 0.413391V23.5867C9.86779 23.8556 10.9169 24 12.0001 24C13.0832 24 14.1324 23.8556 15.1305 23.5866V0.413391C14.1324 0.144375 13.0832 0 12.0001 0V0Z" fill="#D80027"/>
<path d="M6.45438 2.60864L6.7781 3.60506H7.8259L6.9783 4.22091L7.30207 5.21733L6.45438 4.60153L5.60674 5.21733L5.9306 4.22091L5.08301 3.60506H6.13071L6.45438 2.60864Z" fill="#FFDA44"/>
</g>
<defs>
<clipPath id="clip0_119_31244">
<rect width="24" height="24" fill="white"/>
</clipPath>
</defs>
</svg>
