<svg width="24" height="24" viewBox="0 0 24 24" fill="none" xmlns="http://www.w3.org/2000/svg">
<g clip-path="url(#clip0_119_31256)">
<path d="M12 24C18.6274 24 24 18.6274 24 12C24 5.37258 18.6274 0 12 0C5.37258 0 0 5.37258 0 12C0 18.6274 5.37258 24 12 24Z" fill="#F0F0F0"/>
<path d="M12 0C8.68623 0 5.68623 1.34316 3.51465 3.51469L12 12V0Z" fill="black"/>
<path d="M0 12C0 15.3137 1.34316 18.3137 3.51469 20.4853L12 12H0Z" fill="black"/>
<path d="M12 24C15.3137 24 18.3137 22.6568 20.4853 20.4853L12 12V24Z" fill="black"/>
<path d="M24 12C24 8.68623 22.6568 5.68623 20.4853 3.51465L12 12H24Z" fill="black"/>
<path d="M7.82617 8.34789L12.0001 8.86975L16.174 8.34789V5.84354L14.5044 6.67834L12.0001 4.17395L9.49572 6.67834L7.82617 5.84354V8.34789Z" fill="#FFDA44"/>
<path d="M12.0001 18.2608C9.69855 18.2608 7.82617 16.3884 7.82617 14.0869V9.91324L9.39138 8.3479H14.6088L16.174 9.91324V14.0869C16.174 16.3884 14.3016 18.2608 12.0001 18.2608Z" fill="#D80027"/>
<path d="M12.0003 16.6956C10.5618 16.6956 9.3916 15.5253 9.3916 14.0869V9.91309H14.609V14.0869C14.609 15.5253 13.4387 16.6956 12.0003 16.6956Z" fill="#F0F0F0"/>
<path d="M7.82617 8.34778H9.39138V9.91298H7.82617V8.34778Z" fill="#FFDA44"/>
<path d="M14.6084 8.34778H16.1736V9.91298H14.6084V8.34778Z" fill="#FFDA44"/>
<path d="M14.6084 11.7391H16.1736V13.3043H14.6084V11.7391Z" fill="#FFDA44"/>
<path d="M7.82617 11.7391H9.39138V13.3043H7.82617V11.7391Z" fill="#FFDA44"/>
<path d="M12.0004 16.6957C11.7278 16.6957 11.4649 16.6535 11.2178 16.5756V18.1862C11.4715 18.2346 11.7328 18.2609 12.0004 18.2609C12.268 18.2609 12.5293 18.2346 12.783 18.1862V16.5756C12.5359 16.6534 12.273 16.6957 12.0004 16.6957Z" fill="#FFDA44"/>
<path d="M9.42588 14.5104L8.17676 15.7595C8.39332 16.2526 8.70232 16.696 9.0821 17.0677L10.1884 15.9614C9.79357 15.58 9.51855 15.0756 9.42588 14.5104Z" fill="#FFDA44"/>
<path d="M15.8231 15.7596L14.5739 14.5105C14.4812 15.0757 14.2063 15.58 13.8115 15.9616L14.9178 17.0679C15.2975 16.6961 15.6065 16.2527 15.8231 15.7596Z" fill="#FFDA44"/>
<path d="M11.4785 10.7827V11.6522C11.4785 11.9403 11.7121 12.174 12.0002 12.174C12.2884 12.174 12.522 11.9403 12.522 11.6522V10.7827H11.4785Z" fill="#0052B4"/>
<path d="M11.4785 14.261V15.1305C11.4785 15.4186 11.7121 15.6522 12.0002 15.6522C12.2884 15.6522 12.522 15.4186 12.522 15.1305V14.261H11.4785Z" fill="#0052B4"/>
<path d="M13.0439 12.5217V13.3914C13.0439 13.6794 13.2775 13.9131 13.5657 13.9131C13.8538 13.9131 14.0874 13.6794 14.0874 13.3914V12.5217H13.0439Z" fill="#0052B4"/>
<path d="M11.4785 12.5217V13.3914C11.4785 13.6794 11.7121 13.9131 12.0002 13.9131C12.2884 13.9131 12.522 13.6794 12.522 13.3914V12.5217H11.4785Z" fill="#0052B4"/>
<path d="M9.91309 12.5217V13.3914C9.91309 13.6794 10.1467 13.9131 10.4348 13.9131C10.7229 13.9131 10.9565 13.6794 10.9565 13.3914V12.5217H9.91309Z" fill="#0052B4"/>
</g>
<defs>
<clipPath id="clip0_119_31256">
<rect width="24" height="24" fill="white"/>
</clipPath>
</defs>
</svg>
