<svg width="24" height="24" viewBox="0 0 24 24" fill="none" xmlns="http://www.w3.org/2000/svg">
<g clip-path="url(#clip0_119_31131)">
<path d="M12 24C18.6274 24 24 18.6274 24 12C24 5.37258 18.6274 0 12 0C5.37258 0 0 5.37258 0 12C0 18.6274 5.37258 24 12 24Z" fill="#6DA544"/>
<path d="M18.4209 17.2174L18.7502 17.906L19.4938 17.7341L19.1608 18.4209L19.7588 18.8951L19.0142 19.0629L19.0163 19.8261L18.4209 19.3486L17.8255 19.8261L17.8275 19.0629L17.083 18.8951L17.681 18.4209L17.348 17.7341L18.0916 17.906L18.4209 17.2174Z" fill="#FFDA44"/>
<path d="M15.3574 9.91309L15.6867 10.6016L16.4304 10.4297L16.0973 11.1166L16.6953 11.5907L15.9508 11.7586L15.9528 12.5218L15.3574 12.0443L14.762 12.5218L14.764 11.7586L14.0195 11.5907L14.6175 11.1166L14.2845 10.4297L15.0281 10.6016L15.3574 9.91309Z" fill="#FFDA44"/>
<path d="M18.4208 5.73914L18.7501 6.42768L19.4937 6.25574L19.1608 6.94256L19.7587 7.41679L19.0142 7.58456L19.0162 8.34782L18.4208 7.87031L17.8254 8.34782L17.8275 7.58456L17.083 7.41679L17.6809 6.94256L17.3479 6.25574L18.0915 6.42768L18.4208 5.73914Z" fill="#FFDA44"/>
<path d="M21.0966 8.86963L21.4259 9.55818L22.1696 9.38629L21.8366 10.0731L22.4346 10.5473L21.69 10.7151L21.6921 11.4784L21.0966 11.0008L20.5012 11.4784L20.5033 10.7151L19.7588 10.5473L20.3568 10.0731L20.0237 9.38629L20.7674 9.55818L21.0966 8.86963Z" fill="#FFDA44"/>
<path d="M19.1841 12.5217L19.4431 13.3189H20.2813L19.6032 13.8116L19.8623 14.6087L19.1841 14.1161L18.506 14.6087L18.765 13.8116L18.0869 13.3189H18.9251L19.1841 12.5217Z" fill="#FFDA44"/>
<path d="M13.3045 15.3914C11.4315 15.3914 9.91309 13.873 9.91309 12.0001C9.91309 10.1272 11.4314 8.6088 13.3045 8.6088C13.8884 8.6088 14.4379 8.7565 14.9177 9.01642C14.1651 8.28039 13.1359 7.82617 12 7.82617C9.69489 7.82617 7.82617 9.69489 7.82617 12.0001C7.82617 14.3052 9.69489 16.174 12 16.174C13.1359 16.174 14.1651 15.7197 14.9176 14.9837C14.4379 15.2437 13.8884 15.3914 13.3045 15.3914Z" fill="#FFDA44"/>
<path d="M7.54677 4.69571C7.18584 4.07208 6.51201 3.65222 5.7397 3.65222C4.96738 3.65222 4.29355 4.07208 3.93262 4.69571H7.54677Z" fill="#FFDA44"/>
<path d="M7.55328 4.70776L5.73927 6.52178L3.92525 4.70776C3.75186 5.01203 3.65234 5.36392 3.65234 5.7392C3.65234 6.89181 4.5867 7.82617 5.73931 7.82617C6.89192 7.82617 7.82628 6.89186 7.82628 5.7392C7.82623 5.36392 7.72667 5.01203 7.55328 4.70776Z" fill="#FFDA44"/>
<path d="M5.21777 6V7.76034C5.38451 7.80323 5.55935 7.82606 5.73949 7.82606C5.91963 7.82606 6.09448 7.80319 6.26121 7.76034V6H5.21777Z" fill="#A2001D"/>
</g>
<defs>
<clipPath id="clip0_119_31131">
<rect width="24" height="24" fill="white"/>
</clipPath>
</defs>
</svg>
