<svg width="24" height="24" viewBox="0 0 24 24" fill="none" xmlns="http://www.w3.org/2000/svg">
<g clip-path="url(#clip0_119_31160)">
<path d="M12 24C18.6274 24 24 18.6274 24 12C24 5.37258 18.6274 0 12 0C5.37258 0 0 5.37258 0 12C0 18.6274 5.37258 24 12 24Z" fill="#FCFCFC"/>
<path d="M16.1781 10.164C16.1781 7.62599 14.1206 5.5686 11.5827 5.5686C9.70983 5.5686 8.09982 6.68939 7.38394 8.29645L6.81718 10.3512L7.33889 10.8729L6.29541 12.9599L7.33889 13.4816L6.81718 14.0033V14.5251L7.33889 15.0468V16.0903L7.86061 16.612L9.42582 16.0903C9.42582 16.0903 9.42582 16.612 9.94754 17.1337C10.4693 17.6555 10.9911 18.699 10.9911 18.699C10.9911 18.699 12.5563 19.2207 13.5998 17.6555C14.6432 16.0903 15.6867 15.5685 15.6867 15.5685L14.681 13.5569C15.6008 12.7168 16.1781 11.508 16.1781 10.164Z" fill="black"/>
<path d="M16.553 11.9214C18.6731 11.5638 19.0263 7.41223 19.0263 7.41223H16.1045C17.6176 11.0644 16.0339 11.3101 16.0339 11.3101C15.8194 11.1505 8.14132 7.51315 7.89795 7.42067C7.8393 7.49914 7.62345 7.70525 7.36104 8.34697C7.09859 8.98868 7.03418 9.566 7.03418 9.566C7.15709 9.64611 15.3111 12.4933 15.5267 12.5171C15.9544 12.7967 16.4807 13.633 16.1866 16.1126L18.9988 15.32C18.9989 15.32 18.0445 12.7812 16.553 11.9214Z" fill="#ACABB1"/>
</g>
<defs>
<clipPath id="clip0_119_31160">
<rect width="24" height="24" fill="white"/>
</clipPath>
</defs>
</svg>
