<svg width="24" height="24" viewBox="0 0 24 24" fill="none" xmlns="http://www.w3.org/2000/svg">
<g clip-path="url(#clip0_119_31123)">
<path d="M24 12C24 10.5321 23.736 9.12602 23.2536 7.82609L12 7.30432L0.746391 7.82604C0.264047 9.12602 0 10.5321 0 12C0 13.4678 0.264047 14.8739 0.746391 16.1739L12 16.6956L23.2536 16.1739C23.736 14.8739 24 13.4678 24 12Z" fill="#F0F0F0"/>
<path d="M12.0002 24.0001C17.1598 24.0001 21.5583 20.7436 23.2538 16.174H0.746582C2.4421 20.7436 6.84061 24.0001 12.0002 24.0001Z" fill="#0052B4"/>
<path d="M0.746582 7.82611H23.2538C21.5583 3.2565 17.1598 0 12.0002 0C6.84061 0 2.4421 3.2565 0.746582 7.82611Z" fill="#D80027"/>
<path d="M15.1309 8.3479H13.0439L13.3918 5.73916L14.7831 4.69568L16.1744 5.73916V7.82613L15.1309 8.3479Z" fill="#338AF3"/>
<path d="M8.86961 8.3479H10.9566L10.6087 5.73916L9.21742 4.69568L7.82617 5.73916V7.82613L8.86961 8.3479Z" fill="#338AF3"/>
<path d="M13.3911 8.3479H10.6084V5.73916L11.9997 4.69568L13.3911 5.73916V8.3479Z" fill="#0052B4"/>
<path d="M7.82617 7.82617V13.5653C7.82617 14.9318 8.48627 16.1471 9.50439 16.909L10.2348 16.7262L11.1566 17.6535C11.4292 17.7096 11.7112 17.7392 12.0001 17.7392C12.2875 17.7392 12.5681 17.71 12.8392 17.6544L13.8914 16.7783L14.4957 16.9073C15.5134 16.1455 16.174 14.9314 16.174 13.5653V7.82617H7.82617Z" fill="#F0F0F0"/>
<path d="M7.82617 7.82605H9.49572V9.4956H7.82617V7.82605Z" fill="#D80027"/>
<path d="M11.165 7.82605H12.8346V9.4956H11.165V7.82605Z" fill="#D80027"/>
<path d="M14.5049 7.82605H16.1744V9.4956H14.5049V7.82605Z" fill="#D80027"/>
<path d="M9.49609 9.49561H11.1656V11.1652H9.49609V9.49561Z" fill="#D80027"/>
<path d="M12.835 9.49561H14.5045V11.1652H12.835V9.49561Z" fill="#D80027"/>
<path d="M7.82617 11.1647H9.49572V12.8342H7.82617V11.1647Z" fill="#D80027"/>
<path d="M9.49609 12.8342H11.1656V14.5038H9.49609V12.8342Z" fill="#D80027"/>
<path d="M11.165 11.1647H12.8346V12.8342H11.165V11.1647Z" fill="#D80027"/>
<path d="M14.5049 11.1647H16.1744V12.8342H14.5049V11.1647Z" fill="#D80027"/>
<path d="M12.835 12.8342H14.5045V14.5038H12.835V12.8342Z" fill="#D80027"/>
<path d="M11.165 14.5038H12.8346V16.1733H11.165V14.5038Z" fill="#D80027"/>
<path d="M9.49542 14.5039H7.93359C8.07684 15.1245 8.35847 15.6924 8.74463 16.1735H9.49542V14.5039Z" fill="#D80027"/>
<path d="M14.5049 16.1735H15.2556C15.6419 15.6924 15.9234 15.1245 16.0667 14.5039H14.5049V16.1735Z" fill="#D80027"/>
<path d="M9.49609 16.1735V16.9019C9.98167 17.2673 10.5491 17.5293 11.1656 17.655V16.1735H9.49609Z" fill="#D80027"/>
<path d="M12.835 16.1735V17.655C13.4515 17.5294 14.0189 17.2673 14.5045 16.9019V16.1735H12.835Z" fill="#D80027"/>
</g>
<defs>
<clipPath id="clip0_119_31123">
<rect width="24" height="24" fill="white"/>
</clipPath>
</defs>
</svg>
