<svg width="24" height="24" viewBox="0 0 24 24" fill="none" xmlns="http://www.w3.org/2000/svg">
<g clip-path="url(#clip0_119_31108)">
<path d="M12 24C18.6274 24 24 18.6274 24 12C24 5.37258 18.6274 0 12 0C5.37258 0 0 5.37258 0 12C0 18.6274 5.37258 24 12 24Z" fill="#FFDA44"/>
<path d="M12 24.0001C15.9375 24.0001 19.432 22.1036 21.6201 19.1743H2.37988C4.56801 22.1036 8.06249 24.0001 12 24.0001Z" fill="#0052B4"/>
<path d="M24 12C24 5.37262 18.6274 0 12 0C5.37262 0 0 5.37262 0 12C0 13.419 0.246984 14.7803 0.699188 16.0439H23.3008C23.753 14.7803 24 13.419 24 12Z" fill="#0052B4"/>
<path d="M8.21359 7.69592L8.86108 9.68867H10.9566L9.26134 10.9205L9.90883 12.9133L8.21359 11.6816L6.51836 12.9133L7.16594 10.9205L5.4707 9.68867H7.56611L8.21359 7.69592Z" fill="#F0F0F0"/>
<path d="M4.61541 5.60901L5.00391 6.8047H6.26124L5.2441 7.54373L5.6326 8.73946L4.61541 8.00043L3.59827 8.73946L3.98682 7.54373L2.96973 6.8047H4.22701L4.61541 5.60901Z" fill="#F0F0F0"/>
</g>
<defs>
<clipPath id="clip0_119_31108">
<rect width="24" height="24" fill="white"/>
</clipPath>
</defs>
</svg>
