<svg width="24" height="24" viewBox="0 0 24 24" fill="none" xmlns="http://www.w3.org/2000/svg">
<g clip-path="url(#clip0_119_31101)">
<path d="M12 24C18.6274 24 24 18.6274 24 12C24 5.37258 18.6274 0 12 0C5.37258 0 0 5.37258 0 12C0 18.6274 5.37258 24 12 24Z" fill="#F0F0F0"/>
<path d="M14.3481 23.7698C19.092 22.8287 22.829 19.0917 23.77 14.3479H14.3481V23.7698Z" fill="#496E2D"/>
<path d="M0.230469 14.3479C1.17148 19.0917 4.90845 22.8287 9.65234 23.7698V14.3479H0.230469Z" fill="#496E2D"/>
<path d="M23.77 9.65222C22.829 4.90838 19.092 1.17141 14.3481 0.230347V9.65222H23.77Z" fill="#496E2D"/>
<path d="M9.65234 0.230347C4.90845 1.17141 1.17148 4.90838 0.230469 9.65222H9.65234V0.230347Z" fill="#496E2D"/>
<path d="M11.2175 14.3479H9.65234V23.7698C10.1631 23.8711 10.6857 23.9397 11.2175 23.974V14.3479Z" fill="#FFDA44"/>
<path d="M11.2175 9.65218V0.026123C10.6857 0.0603418 10.1631 0.129014 9.65234 0.230311V9.65218H11.2175Z" fill="#FFDA44"/>
<path d="M12.7825 0.0261094C12.5237 0.009375 12.2629 0 11.9999 0C11.7369 0 11.4761 0.009375 11.2173 0.0261094V9.65222H12.7825V0.0261094H12.7825Z" fill="black"/>
<path d="M11.2173 23.9738C11.4761 23.9906 11.7369 24 11.9999 24C12.2629 24 12.5237 23.9906 12.7825 23.9738V14.3478H11.2173V23.9738H11.2173Z" fill="black"/>
<path d="M9.65194 11.2174V9.65222H0.230066C0.128723 10.1631 0.0600977 10.6855 0.0258789 11.2174H9.65194Z" fill="#FFDA44"/>
<path d="M14.3477 11.2174H23.9738C23.9395 10.6855 23.8709 10.1631 23.7696 9.65222H14.3477V11.2174H14.3477Z" fill="#FFDA44"/>
<path d="M14.3477 12.7827H23.9738C23.9905 12.5239 23.9998 12.263 23.9998 12C23.9998 11.737 23.9905 11.4762 23.9737 11.2174H14.3477V12.7827Z" fill="black"/>
<path d="M0.0261094 11.2174C0.00942187 11.4762 0 11.737 0 12C0 12.263 0.00942187 12.5239 0.0261094 12.7827H9.65222V11.2175H0.0261094V11.2174Z" fill="black"/>
<path d="M11.9999 17.7391C15.1695 17.7391 17.739 15.1696 17.739 12C17.739 8.83036 15.1695 6.26086 11.9999 6.26086C8.83024 6.26086 6.26074 8.83036 6.26074 12C6.26074 15.1696 8.83024 17.7391 11.9999 17.7391Z" fill="#D80027"/>
<path d="M13.3075 12.6403C12.8806 11.7866 12.3258 10.9213 12.3258 10.9213C12.3258 10.9213 12.3395 10.5273 12.3395 10.2925C12.3395 9.93891 12.0529 9.65222 11.6992 9.65222C11.3642 9.65222 11.0897 9.90961 11.0617 10.2373C10.7983 10.2545 10.5898 10.473 10.5898 10.7408C10.5898 10.9355 10.7001 11.1042 10.8616 11.1885C10.9418 11.0008 11.099 10.8543 11.2933 10.7875C11.325 10.8134 11.359 10.8366 11.3953 10.8562L11.4774 10.8955C11.4774 10.8955 11.1732 11.7529 11.1732 12.2135C11.1732 13.5083 12.027 13.9077 12.027 13.9077V13.921L11.6001 14.3479H12.4538V13.4941L12.8807 13.921C12.8845 13.913 13.6893 13.404 13.3075 12.6403Z" fill="#496E2D"/>
<path d="M12.0001 7.30432L12.1943 7.90216H12.8229L12.3144 8.27168L12.5087 8.86952L12.0001 8.50006L11.4915 8.86952L11.6858 8.27168L11.1772 7.90216H11.8058L12.0001 7.30432Z" fill="#496E2D"/>
<path d="M9.24012 8.2011L9.74863 8.57061L10.2572 8.20105L10.063 8.79899L10.5716 9.16841L9.94292 9.16846L9.74867 9.7663L9.55438 9.16846L8.92578 9.16841L9.43433 8.79889L9.24012 8.2011Z" fill="#496E2D"/>
<path d="M7.53418 10.549H8.16273L8.35702 9.95117L8.55127 10.549L9.17991 10.549L8.67137 10.9185L8.86566 11.5164L8.35702 11.1469L7.84848 11.5163L8.04268 10.9185L7.53418 10.549Z" fill="#496E2D"/>
<path d="M7.53418 13.451L8.04268 13.0815L7.84843 12.4836L8.35702 12.8532L8.86562 12.4836L8.67137 13.0815L9.17996 13.451L8.55127 13.451L8.35702 14.0488L8.16273 13.451H7.53418Z" fill="#496E2D"/>
<path d="M9.24017 15.7988L9.43438 15.201L8.92578 14.8315H9.55442L9.74872 14.2336L9.94297 14.8315H10.5716L10.063 15.201L10.2573 15.7988L9.74867 15.4293L9.24017 15.7988Z" fill="#496E2D"/>
<path d="M12.0001 16.6956L11.8058 16.0978H11.1772L11.6858 15.7283L11.4915 15.1304L12.0001 15.4998L12.5086 15.1304L12.3144 15.7283L12.8229 16.0978L12.1943 16.0978L12.0001 16.6956Z" fill="#496E2D"/>
<path d="M14.7601 15.7988L14.2516 15.4293L13.7431 15.7989L13.9373 15.201L13.4287 14.8315L14.0574 14.8315L14.2516 14.2336L14.4459 14.8315H15.0745L14.5659 15.201L14.7601 15.7988Z" fill="#496E2D"/>
<path d="M16.4656 13.451H15.8371L15.6428 14.0489L15.4485 13.4511H14.8198L15.3284 13.0816L15.1341 12.4838L15.6428 12.8532L16.1513 12.4838L15.9571 13.0816L16.4656 13.451Z" fill="#496E2D"/>
<path d="M16.4656 10.549L15.9571 10.9184L16.1513 11.5163L15.6428 11.1468L15.1342 11.5164L15.3284 10.9185L14.8198 10.549L15.4485 10.5489L15.6427 9.95117L15.8371 10.549H16.4656Z" fill="#496E2D"/>
<path d="M14.7601 8.20117L14.5659 8.79897L15.0745 9.16848H14.4459L14.2516 9.76638L14.0574 9.16853L13.4287 9.16858L13.9373 8.79897L13.7431 8.20122L14.2516 8.57064L14.7601 8.20117Z" fill="#496E2D"/>
</g>
<defs>
<clipPath id="clip0_119_31101">
<rect width="24" height="24" fill="white"/>
</clipPath>
</defs>
</svg>
