<svg width="24" height="24" viewBox="0 0 24 24" fill="none" xmlns="http://www.w3.org/2000/svg">
<g clip-path="url(#clip0_119_31083)">
<path d="M24 12C24 18.6274 18.6274 24 12 24C5.37262 24 0 18.6274 0 12C0 12.0029 12 0.0013125 12 0C18.6274 0 24 5.37262 24 12Z" fill="#0052B4"/>
<path d="M11.9678 12H11.9999C11.9999 11.9892 11.9999 11.9787 11.9999 11.9679C11.9892 11.9786 11.9785 11.9893 11.9678 12Z" fill="#F0F0F0"/>
<path d="M12 6.26086C12 4.14937 12 2.76586 12 0H11.998C5.3715 0.001125 0 5.37323 0 12H6.26086V8.47448L9.78642 12H11.9679L12 11.9679C12 11.1594 12 10.4381 12 9.78647L8.47444 6.26086H12Z" fill="#F0F0F0"/>
<path d="M6.07124 1.56519C4.19441 2.63389 2.63413 4.19417 1.56543 6.071V12H4.69588V4.69573V4.69564H12.0002C12.0002 3.70831 12.0002 2.76772 12.0002 1.56519H6.07124Z" fill="#D80027"/>
<path d="M12.0003 10.5243L7.7369 6.26086H6.26123V6.26096L12.0002 12H12.0003C12.0003 12 12.0003 10.9824 12.0003 10.5243Z" fill="#D80027"/>
<path d="M19.3046 14.0869V14.6086H15.1307V14.0869H13.5654V16.1738H14.6089V16.6956H19.8263V16.1738H20.8698V14.0869H19.3046Z" fill="#FFDA44"/>
<path d="M13.5654 6.26086V12C13.5654 14.7956 17.2176 15.6522 17.2176 15.6522C17.2176 15.6522 20.8698 14.7956 20.8698 12V6.26086H13.5654Z" fill="#338AF3"/>
<path d="M17.2174 10.5417C16.3044 10.5417 16.3044 11.3765 15.3914 11.3765C14.4784 11.3765 14.4784 10.5417 13.5654 10.5417V12.0026C14.4784 12.0026 14.4784 12.8374 15.3914 12.8374C16.3044 12.8374 16.3044 12.0026 17.2174 12.0026C18.1304 12.0026 18.1304 12.8374 19.0436 12.8374C19.9567 12.8374 19.9566 12.0026 20.8698 12.0026V10.5417C19.9567 10.5417 19.9567 11.3765 19.0436 11.3765C18.1304 11.3765 18.1304 10.5417 17.2174 10.5417Z" fill="#F3F3F3"/>
<path d="M17.2174 7.61743C16.3044 7.61743 16.3044 8.45223 15.3914 8.45223C14.4784 8.45223 14.4784 7.61743 13.5654 7.61743V9.07829C14.4784 9.07829 14.4784 9.91309 15.3914 9.91309C16.3044 9.91309 16.3044 9.07829 17.2174 9.07829C18.1304 9.07829 18.1304 9.91309 19.0436 9.91309C19.9567 9.91309 19.9566 9.07829 20.8698 9.07829V7.61743C19.9567 7.61743 19.9567 8.45223 19.0436 8.45223C18.1304 8.45223 18.1304 7.61743 17.2174 7.61743Z" fill="#F3F3F3"/>
</g>
<defs>
<clipPath id="clip0_119_31083">
<rect width="24" height="24" fill="white"/>
</clipPath>
</defs>
</svg>
