<svg width="24" height="24" viewBox="0 0 24 24" fill="none" xmlns="http://www.w3.org/2000/svg">
<g clip-path="url(#clip0_119_31054)">
<path d="M12 24C18.6274 24 24 18.6274 24 12C24 5.37258 18.6274 0 12 0C5.37258 0 0 5.37258 0 12C0 18.6274 5.37258 24 12 24Z" fill="#FFDA44"/>
<path d="M5.23633 2.08697C7.16219 0.770437 9.49084 0 11.9998 0C14.5087 0 16.8374 0.770437 18.7632 2.08697L11.9998 2.60869L5.23633 2.08697Z" fill="#A2001D"/>
<path d="M12.0004 12L11.2346 11.2341L11.0312 11.5984L12.0004 12Z" fill="#0052B4"/>
<path d="M3.51471 3.51465C-1.17157 8.20093 -1.17157 15.7989 3.51471 20.4853C5.45126 18.5487 7.31374 16.6862 12 12L3.51471 3.51465Z" fill="#496E2D"/>
<path d="M20.4853 3.51465C25.1716 8.20093 25.1716 15.7989 20.4853 20.4853C18.5488 18.5487 16.6863 16.6862 12 12L20.4853 3.51465Z" fill="#496E2D"/>
<path d="M12.0001 16.1738C14.3052 16.1738 16.174 14.3051 16.174 11.9999C16.174 9.69476 14.3052 7.82605 12.0001 7.82605C9.69489 7.82605 7.82617 9.69476 7.82617 11.9999C7.82617 14.3051 9.69489 16.1738 12.0001 16.1738Z" fill="#A2001D"/>
<path d="M11.9996 7.82605L12.9352 10.7055H15.9633L13.5137 12.4855L14.4492 15.3651L11.9996 13.5855L9.54996 15.3651L10.4857 12.4855L8.03613 10.7055H11.064L11.9996 7.82605Z" fill="#FFDA44"/>
<path d="M12.0001 0C11.9988 0 11.9975 9.375e-05 11.9961 9.375e-05H12.0041C12.0028 9.375e-05 12.0015 0 12.0001 0Z" fill="#FFDA44"/>
<path d="M12.0043 0H11.9963C8.68444 0.00107812 5.68627 1.34372 3.51562 3.51413H20.485C18.3143 1.34372 15.3161 0.00107812 12.0043 0Z" fill="#A2001D"/>
<path d="M3.51562 20.486C5.68716 22.6572 8.68688 24 12.0002 24C15.3136 24 18.3133 22.6572 20.4848 20.486H3.51562Z" fill="#A2001D"/>
<path d="M12.0006 1.30432L12.1949 1.90217H12.8235L12.315 2.27168L12.5093 2.86952L12.0006 2.50006L11.4921 2.86952L11.6864 2.27168L11.1777 1.90217H11.8063L12.0006 1.30432Z" fill="#FFDA44"/>
<path d="M9.09047 1.30432L9.28477 1.90217H9.91336L9.40481 2.27168L9.59911 2.86952L9.09047 2.50006L8.58197 2.86952L8.77622 2.27168L8.26758 1.90217H8.89617L9.09047 1.30432Z" fill="#FFDA44"/>
<path d="M14.9098 1.30432L15.1041 1.90217H15.7327L15.2241 2.27168L15.4184 2.86952L14.9098 2.50006L14.4013 2.86952L14.5956 2.27168L14.0869 1.90217H14.7155L14.9098 1.30432Z" fill="#FFDA44"/>
<path d="M12.0006 21.1304L12.1949 21.7282H12.8235L12.315 22.0977L12.5093 22.6956L12.0006 22.3261L11.4921 22.6956L11.6864 22.0977L11.1777 21.7282H11.8063L12.0006 21.1304Z" fill="#FFDA44"/>
<path d="M9.09047 21.1304L9.28477 21.7282H9.91336L9.40481 22.0977L9.59911 22.6956L9.09047 22.3261L8.58197 22.6956L8.77622 22.0977L8.26758 21.7282H8.89617L9.09047 21.1304Z" fill="#FFDA44"/>
<path d="M14.9098 21.1304L15.1041 21.7282H15.7327L15.2241 22.0977L15.4184 22.6956L14.9098 22.3261L14.4013 22.6956L14.5956 22.0977L14.0869 21.7282H14.7155L14.9098 21.1304Z" fill="#FFDA44"/>
<path d="M3.65664 11.8018C3.96484 12.2888 3.81999 12.9334 3.33301 13.2416C2.84607 13.5499 2.20145 13.405 1.8932 12.918C1.33515 12.0364 1.65873 10.5966 1.65873 10.5966C1.65873 10.5966 3.09854 10.9201 3.65664 11.8018Z" fill="#FFDA44"/>
<path d="M3.05395 13.3226C3.34208 13.3226 3.57566 13.089 3.57566 12.8009C3.57566 12.5128 3.34208 12.2792 3.05395 12.2792C2.76581 12.2792 2.53223 12.5128 2.53223 12.8009C2.53223 13.089 2.76581 13.3226 3.05395 13.3226Z" fill="#A2001D"/>
</g>
<defs>
<clipPath id="clip0_119_31054">
<rect width="24" height="24" fill="white"/>
</clipPath>
</defs>
</svg>
