<svg width="24" height="24" viewBox="0 0 24 24" fill="none" xmlns="http://www.w3.org/2000/svg">
<g clip-path="url(#clip0_119_31052)">
<path d="M16.1738 0.746437C14.8738 0.264047 13.4677 0 11.9998 0C10.532 0 9.1259 0.264047 7.82596 0.746344L7.3042 12L7.82592 23.2537C9.1259 23.736 10.532 24 11.9998 24C13.4677 24 14.8738 23.736 16.1738 23.2536L16.6955 12L16.1738 0.746437Z" fill="#FFDA44"/>
<path d="M0 12C0 17.1595 3.2565 21.5581 7.82611 23.2536V0.746338C3.2565 2.4419 0 6.84037 0 12Z" fill="#D80027"/>
<path d="M23.9999 12C23.9999 6.84037 20.7434 2.4419 16.1738 0.746338V23.2536C20.7434 21.5581 23.9999 17.1595 23.9999 12Z" fill="#6DA544"/>
</g>
<defs>
<clipPath id="clip0_119_31052">
<rect width="24" height="24" fill="white"/>
</clipPath>
</defs>
</svg>
