<svg width="24" height="24" viewBox="0 0 24 24" fill="none" xmlns="http://www.w3.org/2000/svg">
<g clip-path="url(#clip0_119_31065)">
<path d="M12 24C18.6274 24 24 18.6274 24 12C24 5.37258 18.6274 0 12 0C5.37258 0 0 5.37258 0 12C0 18.6274 5.37258 24 12 24Z" fill="#F0F0F0"/>
<path d="M11.9997 0C7.24218 0 3.13143 2.76867 1.19043 6.78263H22.8089C20.868 2.76867 16.7572 0 11.9997 0Z" fill="#FF9811"/>
<path d="M11.9997 24C16.7572 24 20.868 21.2314 22.809 17.2174H1.19043C3.13143 21.2314 7.24218 24 11.9997 24Z" fill="#6DA544"/>
<path d="M12.0001 16.1738C14.3052 16.1738 16.174 14.3051 16.174 11.9999C16.174 9.69476 14.3052 7.82605 12.0001 7.82605C9.69489 7.82605 7.82617 9.69476 7.82617 11.9999C7.82617 14.3051 9.69489 16.1738 12.0001 16.1738Z" fill="#0052B4"/>
<path d="M12.0003 14.6087C13.441 14.6087 14.609 13.4408 14.609 12C14.609 10.5593 13.441 9.39136 12.0003 9.39136C10.5596 9.39136 9.3916 10.5593 9.3916 12C9.3916 13.4408 10.5596 14.6087 12.0003 14.6087Z" fill="#F0F0F0"/>
<path d="M11.9997 8.78088L12.8045 10.6061L14.7875 10.3904L13.6093 12L14.7875 13.6095L12.8045 13.3939L11.9997 15.2191L11.1949 13.3939L9.21191 13.6095L10.3902 12L9.21191 10.3904L11.1949 10.6061L11.9997 8.78088Z" fill="#0052B4"/>
</g>
<defs>
<clipPath id="clip0_119_31065">
<rect width="24" height="24" fill="white"/>
</clipPath>
</defs>
</svg>
