<svg width="24" height="24" viewBox="0 0 24 24" fill="none" xmlns="http://www.w3.org/2000/svg">
<g clip-path="url(#clip0_119_31029)">
<path d="M12 24C18.6274 24 24 18.6274 24 12C24 5.37258 18.6274 0 12 0C5.37258 0 0 5.37258 0 12C0 18.6274 5.37258 24 12 24Z" fill="#D80027"/>
<path d="M16.4427 8.04428L15.5946 11.071L13.0497 10.6011L11.4116 7.22449L6.98629 8.79485L6.6373 7.81141L5.47949 7.66877L6.35188 10.1273L9.3973 9.34849L10.2628 11.7873L8.15751 14.8943L11.7302 17.9415L11.053 18.7354L11.5084 19.8095L13.2014 17.8246L11.0042 15.5766L12.6836 13.6077L16.4269 13.8775L17.2795 9.2598L18.3057 9.44932L19.0083 8.51791L16.4427 8.04428Z" fill="#F0F0F0"/>
</g>
<defs>
<clipPath id="clip0_119_31029">
<rect width="24" height="24" fill="white"/>
</clipPath>
</defs>
</svg>
