<svg width="24" height="24" viewBox="0 0 24 24" fill="none" xmlns="http://www.w3.org/2000/svg">
<g clip-path="url(#clip0_119_31171)">
<path d="M0 12C0 13.8698 0.427828 15.6398 1.19072 17.2174L12 17.7391L22.8093 17.2174C23.5722 15.6398 24 13.8698 24 12C24 10.1302 23.5722 8.36025 22.8093 6.78263L12 6.26086L1.19072 6.78258C0.427828 8.36026 0 10.1302 0 12H0Z" fill="#F0F0F0"/>
<path d="M11.9997 24C16.7572 24 20.868 21.2314 22.809 17.2174H1.19043C3.13143 21.2314 7.24218 24 11.9997 24Z" fill="#6DA544"/>
<path d="M11.9997 0C7.24218 0 3.13143 2.76867 1.19043 6.78263H22.8089C20.868 2.76867 16.7572 0 11.9997 0Z" fill="#0052B4"/>
<path d="M12.7828 11.7392V8.86963H11.2176V11.7392L9.32715 13.6297C9.87695 14.5297 10.8684 15.1305 12.0002 15.1305C13.1321 15.1305 14.1235 14.5297 14.6733 13.6297L12.7828 11.7392Z" fill="black"/>
</g>
<defs>
<clipPath id="clip0_119_31171">
<rect width="24" height="24" fill="white"/>
</clipPath>
</defs>
</svg>
