<svg width="24" height="24" viewBox="0 0 24 24" fill="none" xmlns="http://www.w3.org/2000/svg">
<g clip-path="url(#clip0_119_31239)">
<path d="M1.19072 6.78262C0.427875 8.36025 0 10.1301 0 12C0 13.8699 0.427875 15.6397 1.19072 17.2174L12 18.2609L22.8093 17.2174C23.5721 15.6397 24 13.8699 24 12C24 10.1301 23.5721 8.36025 22.8093 6.78262L12 5.73914L1.19072 6.78262Z" fill="black"/>
<path d="M1.19141 17.2174C3.13231 21.2314 7.24273 24 12.0003 24C16.7577 24 20.8682 21.2314 22.8091 17.2174H1.19141Z" fill="#496E2D"/>
<path d="M1.19141 6.78263H22.8091C20.8682 2.76867 16.7577 0 12.0003 0C7.24273 0 3.13231 2.76867 1.19141 6.78263Z" fill="#D80027"/>
<path d="M14.7929 9.80554L15.7775 11.1623L17.372 10.6453L16.3859 12.0009L17.3704 13.3577L15.7764 12.8387L14.7903 14.1943L14.7913 12.518L13.1973 11.999L14.7919 11.482L14.7929 9.80554Z" fill="#F0F0F0"/>
<path d="M12.1062 15.3913C10.2332 15.3913 8.71485 13.8729 8.71485 12C8.71485 10.127 10.2332 8.60867 12.1062 8.60867C12.6901 8.60867 13.2396 8.75633 13.7194 9.0163C12.9667 8.28032 11.9376 7.82605 10.8018 7.82605C8.4966 7.82605 6.62793 9.69477 6.62793 11.9999C6.62793 14.3051 8.49665 16.1738 10.8018 16.1738C11.9376 16.1738 12.9668 15.7196 13.7194 14.9836C13.2396 15.2436 12.6902 15.3913 12.1062 15.3913Z" fill="#F0F0F0"/>
</g>
<defs>
<clipPath id="clip0_119_31239">
<rect width="24" height="24" fill="white"/>
</clipPath>
</defs>
</svg>
