<svg width="24" height="24" viewBox="0 0 24 24" fill="none" xmlns="http://www.w3.org/2000/svg">
<g clip-path="url(#clip0_119_31218)">
<path d="M24 12C24 18.6274 18.6274 24 12 24C5.37262 24 0 18.6274 0 12C0.521719 12 12 10.4348 12 10.4348L24 12Z" fill="#D80027"/>
<path d="M0 12C0 5.37262 5.37262 0 12 0C18.6274 0 24 5.37262 24 12" fill="#0052B4"/>
<path d="M8.86926 8.34785C8.86926 7.48343 8.16848 6.78265 7.30405 6.78265C6.90304 6.78265 6.53755 6.93358 6.26057 7.18151V6.26088H6.78229V5.2174H6.26057V4.69568H5.21709V5.2174H4.69537V6.26088H5.21709V7.18151C4.9401 6.93358 4.57462 6.78265 4.1736 6.78265C3.30918 6.78265 2.6084 7.48343 2.6084 8.34785C2.6084 8.8113 2.81001 9.22755 3.13012 9.51419V10.4348H8.34749V9.51419C8.6677 9.22755 8.86926 8.8113 8.86926 8.34785Z" fill="#FFDA44"/>
</g>
<defs>
<clipPath id="clip0_119_31218">
<rect width="24" height="24" fill="white"/>
</clipPath>
</defs>
</svg>
