<svg width="24" height="24" viewBox="0 0 24 24" fill="none" xmlns="http://www.w3.org/2000/svg">
<g clip-path="url(#clip0_119_31117)">
<path d="M12 24C18.6274 24 24 18.6274 24 12C24 5.37258 18.6274 0 12 0C5.37258 0 0 5.37258 0 12C0 18.6274 5.37258 24 12 24Z" fill="#F0F0F0"/>
<path d="M11.4775 12H23.9993C23.9993 10.9168 23.8549 9.86766 23.5859 8.86951H11.4775V12Z" fill="#D80027"/>
<path d="M11.4775 5.7391H22.238C21.5034 4.54041 20.5643 3.48089 19.4691 2.60864H11.4775V5.7391Z" fill="#D80027"/>
<path d="M12.0001 23.9999C14.8243 23.9999 17.4201 23.0238 19.47 21.3912H4.53027C6.58016 23.0238 9.17596 23.9999 12.0001 23.9999Z" fill="#D80027"/>
<path d="M1.76098 18.2608H22.2384C22.8281 17.2986 23.2855 16.2467 23.5863 15.1304H0.413086C0.713883 16.2467 1.17124 17.2986 1.76098 18.2608Z" fill="#D80027"/>
<path d="M12 12C12 5.37262 12 4.59131 12 0C5.37262 0 0 5.37262 0 12H12Z" fill="#0052B4"/>
<path d="M7.98001 10.2717C6.34116 10.2717 5.01263 8.94314 5.01263 7.30435C5.01263 5.66555 6.34121 4.33697 7.98001 4.33697C8.49099 4.33697 8.97179 4.46621 9.39155 4.69364C8.73305 4.04972 7.83249 3.65222 6.8387 3.65222C4.82171 3.65222 3.18652 5.28736 3.18652 7.30439C3.18652 9.32142 4.82171 10.9566 6.8387 10.9566C7.83249 10.9566 8.73305 10.5591 9.39155 9.91514C8.97179 10.1425 8.49104 10.2717 7.98001 10.2717Z" fill="#FFDA44"/>
<path d="M8.81647 5.21741L9.3433 6.31906L10.533 6.04419L10.0002 7.14289L10.9571 7.90166L9.76578 8.1702L9.76911 9.39135L8.81647 8.62738L7.86378 9.39135L7.86706 8.1702L6.67578 7.90166L7.63259 7.14289L7.09977 6.04419L8.28959 6.31906L8.81647 5.21741Z" fill="#FFDA44"/>
</g>
<defs>
<clipPath id="clip0_119_31117">
<rect width="24" height="24" fill="white"/>
</clipPath>
</defs>
</svg>
