<svg width="24" height="24" viewBox="0 0 24 24" fill="none" xmlns="http://www.w3.org/2000/svg">
<g clip-path="url(#clip0_119_31204)">
<path d="M12 24C18.6274 24 24 18.6274 24 12C24 5.37258 18.6274 0 12 0C5.37258 0 0 5.37258 0 12C0 18.6274 5.37258 24 12 24Z" fill="#338AF3"/>
<path d="M5.73926 13.0435H18.261V14.6087H5.73926V13.0435Z" fill="#818085"/>
<path d="M7.82617 8.34789L12.0001 8.8697L16.174 8.34789V5.84354L14.5044 6.67834L12.0001 4.17395L9.49572 6.67834L7.82617 5.84354V8.34789Z" fill="#FFDA44"/>
<path d="M6.78302 16.174H5.21777V13.3044L5.73954 12.5217L5.21777 11.7391V9.91309H6.78302V16.174Z" fill="#F0F0F0"/>
<path d="M18.783 16.174H17.2178V9.91309H18.783V11.7391L18.2613 12.5349L18.783 13.3045V16.174Z" fill="#F0F0F0"/>
<path d="M5.21777 11.7391H18.783V13.3043H5.21777V11.7391Z" fill="#ACABB1"/>
<path d="M12.0001 18.2609C9.69855 18.2609 7.82617 16.3885 7.82617 14.087V8.3479H16.174V14.087C16.174 16.3885 14.3016 18.2609 12.0001 18.2609Z" fill="#F0F0F0"/>
<path d="M12.0003 16.6956C10.5618 16.6956 9.3916 15.5253 9.3916 14.0869V9.91309H14.609V14.0869C14.609 15.5253 13.4387 16.6956 12.0003 16.6956Z" fill="#0052B4"/>
<path d="M7.82617 8.34778H9.39138V9.91298H7.82617V8.34778Z" fill="#D80027"/>
<path d="M14.6084 8.34778H16.1736V9.91298H14.6084V8.34778Z" fill="#D80027"/>
<path d="M14.6084 11.7391H16.1736V13.3043H14.6084V11.7391Z" fill="#D80027"/>
<path d="M7.82617 11.7391H9.39138V13.3043H7.82617V11.7391Z" fill="#D80027"/>
<path d="M11.2178 8.34778H12.783V9.91298H11.2178V8.34778Z" fill="#D80027"/>
<path d="M12.0004 16.6957C11.7278 16.6957 11.4649 16.6535 11.2178 16.5756V18.1862C11.4715 18.2346 11.7328 18.2609 12.0004 18.2609C12.268 18.2609 12.5293 18.2346 12.783 18.1862V16.5756C12.5359 16.6534 12.273 16.6957 12.0004 16.6957Z" fill="#D80027"/>
<path d="M9.42588 14.5104L8.17676 15.7595C8.39332 16.2526 8.70232 16.696 9.0821 17.0677L10.1884 15.9614C9.79357 15.58 9.51855 15.0756 9.42588 14.5104Z" fill="#D80027"/>
<path d="M15.8231 15.7596L14.5739 14.5105C14.4812 15.0757 14.2063 15.58 13.8115 15.9616L14.9178 17.0679C15.2975 16.6961 15.6065 16.2527 15.8231 15.7596Z" fill="#D80027"/>
</g>
<defs>
<clipPath id="clip0_119_31204">
<rect width="24" height="24" fill="white"/>
</clipPath>
</defs>
</svg>
