<svg width="24" height="24" viewBox="0 0 24 24" fill="none" xmlns="http://www.w3.org/2000/svg">
<g clip-path="url(#clip0_119_31181)">
<path d="M12.0003 24C13.4682 24 14.8743 23.736 16.1742 23.2536L16.696 12L16.1743 0.746391C14.8743 0.264047 13.4682 0 12.0003 0C10.5325 0 9.12639 0.264047 7.82645 0.746391L7.30469 12L7.82641 23.2536C9.12639 23.736 10.5325 24 12.0003 24Z" fill="#0052B4"/>
<path d="M0 11.9999C0 17.1595 3.2565 21.558 7.82611 23.2536V0.746338C3.2565 2.44185 0 6.84037 0 11.9999Z" fill="#A2001D"/>
<path d="M16.1738 0.746338V23.2536C20.7434 21.558 23.9999 17.1595 23.9999 11.9999C23.9999 6.84037 20.7434 2.44185 16.1738 0.746338Z" fill="#A2001D"/>
<path d="M5.73926 12H6.78274V16.1739H5.73926V12Z" fill="#FFDA44"/>
<path d="M1.56543 12H2.60891V16.1739H1.56543V12Z" fill="#FFDA44"/>
<path d="M4.17434 14.6087C4.75064 14.6087 5.21783 14.1415 5.21783 13.5652C5.21783 12.9889 4.75064 12.5217 4.17434 12.5217C3.59804 12.5217 3.13086 12.9889 3.13086 13.5652C3.13086 14.1415 3.59804 14.6087 4.17434 14.6087Z" fill="#FFDA44"/>
<path d="M4.17406 10.4348C4.4622 10.4348 4.69578 10.2012 4.69578 9.91308C4.69578 9.62494 4.4622 9.39136 4.17406 9.39136C3.88593 9.39136 3.65234 9.62494 3.65234 9.91308C3.65234 10.2012 3.88593 10.4348 4.17406 10.4348Z" fill="#FFDA44"/>
<path d="M3.13086 15.1305H5.21783V16.174H3.13086V15.1305Z" fill="#FFDA44"/>
<path d="M3.13086 10.9565H5.21783V12H3.13086V10.9565Z" fill="#FFDA44"/>
<path d="M4.17458 6.26086L4.54414 7.39805H5.73983L4.77256 8.1009L5.14184 9.23808L4.17458 8.53524L3.20736 9.23808L3.57664 8.1009L2.60938 7.39805H3.80506L4.17458 6.26086Z" fill="#FFDA44"/>
</g>
<defs>
<clipPath id="clip0_119_31181">
<rect width="24" height="24" fill="white"/>
</clipPath>
</defs>
</svg>
