<svg width="24" height="24" viewBox="0 0 24 24" fill="none" xmlns="http://www.w3.org/2000/svg">
<g clip-path="url(#clip0_119_31058)">
<path d="M24 12C24 18.6274 18.6274 24 12 24C5.37262 24 0 18.6274 0 12C0 12.0029 12 0.0013125 12 0C18.6274 0 24 5.37262 24 12Z" fill="#0052B4"/>
<path d="M11.9678 12H11.9999C11.9999 11.9892 11.9999 11.9787 11.9999 11.9679C11.9892 11.9786 11.9785 11.9893 11.9678 12Z" fill="#F0F0F0"/>
<path d="M12 6.26086C12 4.14937 12 2.76586 12 0H11.998C5.37145 0.001125 0 5.37323 0 12H6.26086V8.47448L9.78638 12H11.9679C11.9786 11.9893 11.9893 11.9786 12 11.9679C12 11.1594 12 10.4381 12 9.78647L8.47444 6.26086H12Z" fill="#F0F0F0"/>
<path d="M6.07124 1.56519C4.19441 2.63389 2.63409 4.19417 1.56543 6.071V12H4.69588V4.69573V4.69564H12.0002C12.0002 3.70831 12.0002 2.76772 12.0002 1.56519H6.07124Z" fill="#D80027"/>
<path d="M11.9999 10.5243L7.73637 6.26086H6.26074V6.26096L11.9998 12H11.9999C11.9999 12 11.9999 10.9824 11.9999 10.5243Z" fill="#D80027"/>
<path d="M13.5654 6.26086V12C13.5654 14.7956 17.2176 15.6522 17.2176 15.6522C17.2176 15.6522 20.8698 14.7956 20.8698 12V6.26086H13.5654Z" fill="#338AF3"/>
<path d="M13.5654 12C13.5654 14.7956 17.2176 15.6522 17.2176 15.6522C17.2176 15.6522 20.8698 14.7956 20.8698 12H13.5654Z" fill="#A2001D"/>
<path d="M18.7828 8.86958H17.7393V7.82605H16.6958V8.86958H15.6523V9.91302H16.6958V13.0434H17.7393V9.91302H18.7828V8.86958Z" fill="black"/>
</g>
<defs>
<clipPath id="clip0_119_31058">
<rect width="24" height="24" fill="white"/>
</clipPath>
</defs>
</svg>
