<svg width="24" height="24" viewBox="0 0 24 24" fill="none" xmlns="http://www.w3.org/2000/svg">
<g clip-path="url(#clip0_119_31250)">
<path d="M12 24C18.6274 24 24 18.6274 24 12C24 5.37258 18.6274 0 12 0C5.37258 0 0 5.37258 0 12C0 18.6274 5.37258 24 12 24Z" fill="#F0F0F0"/>
<path d="M3.51451 20.4853C4.0179 20.9887 4.55499 21.4376 5.11838 21.8328L21.8326 5.11863C21.4374 4.55524 20.9884 4.01814 20.485 3.51475C19.9816 3.01136 19.4445 2.56249 18.8811 2.16724L2.16699 18.8815C2.5622 19.4448 3.01112 19.9819 3.51451 20.4853Z" fill="#A2001D"/>
<path d="M3.51428 3.51466C-0.271532 7.30047 -0.998282 12.986 1.33248 17.5021L17.5016 1.33295C12.9856 -0.997814 7.3 -0.27097 3.51428 3.51466Z" fill="#0052B4"/>
<path d="M20.4854 20.4853C24.2711 16.6996 24.9979 11.014 22.6672 6.49792L6.49805 22.6671C11.014 24.9978 16.6996 24.2711 20.4854 20.4853Z" fill="#496E2D"/>
<path d="M9.91259 6.78267L8.56793 7.41516L9.28399 8.71744L7.82388 8.43816L7.63882 9.91308L6.62182 8.82825L5.60477 9.91308L5.41981 8.43816L3.95965 8.71739L4.67566 7.41511L3.33105 6.78267L4.67571 6.15014L3.95965 4.84796L5.41976 5.12724L5.60482 3.65222L6.62182 4.7371L7.63887 3.65222L7.82388 5.12724L9.28399 4.84796L8.56802 6.15019L9.91259 6.78267Z" fill="#FFDA44"/>
</g>
<defs>
<clipPath id="clip0_119_31250">
<rect width="24" height="24" fill="white"/>
</clipPath>
</defs>
</svg>
