<svg width="24" height="24" viewBox="0 0 24 24" fill="none" xmlns="http://www.w3.org/2000/svg">
<g clip-path="url(#clip0_119_31183)">
<path d="M12 24C18.6274 24 24 18.6274 24 12C24 5.37258 18.6274 0 12 0C5.37258 0 0 5.37258 0 12C0 18.6274 5.37258 24 12 24Z" fill="#F0F0F0"/>
<path d="M23.9292 13.3043C23.9292 13.3042 23.9293 13.3041 23.9293 13.304L10.7693 0.0623779C10.1757 0.122894 9.59475 0.226675 9.02986 0.370534C3.83897 1.69217 0 12 0 12C0 12 16.7999 23.2423 18.7165 21.9452C19.1 21.6857 19.4677 21.4046 19.8177 21.1036L12.0185 13.3043H23.9292Z" fill="#0052B4"/>
<path d="M20.8695 12L9.19898 0.329468C3.92287 1.5912 0 6.33711 0 12C0 18.6274 5.37262 24 12 24C14.5139 24 16.8467 23.2265 18.7748 21.9052L8.86955 12H20.8695Z" fill="#D80027"/>
<path d="M11.4126 17.7185L9.94704 17.0291L10.7275 15.6098L9.13605 15.9142L8.9344 14.3065L7.82595 15.4889L6.71749 14.3065L6.51579 15.9142L4.92443 15.6097L5.70485 17.0291L4.23926 17.7185L5.70485 18.4078L4.92443 19.8271L6.51588 19.5227L6.71745 21.1303L7.82595 19.9479L8.9344 21.1303L9.13605 19.5227L10.7274 19.8272L9.94699 18.4078L11.4126 17.7185Z" fill="#F0F0F0"/>
<path d="M10.4342 6.65551L9.36828 6.15418L9.93589 5.12186L8.77841 5.34329L8.63173 4.17395L7.82553 5.03397L7.01933 4.17395L6.87261 5.34329L5.71512 5.12186L6.28278 6.15418L5.2168 6.65551L7.82553 7.17733L10.4342 6.65551Z" fill="#F0F0F0"/>
<path d="M10.9562 6.65552C10.9562 8.38441 9.55466 9.78597 7.82577 9.78597C6.09687 9.78597 4.69531 8.38441 4.69531 6.65552" fill="#F0F0F0"/>
</g>
<defs>
<clipPath id="clip0_119_31183">
<rect width="24" height="24" fill="white"/>
</clipPath>
</defs>
</svg>
