<svg width="24" height="24" viewBox="0 0 24 24" fill="none" xmlns="http://www.w3.org/2000/svg">
<g clip-path="url(#clip0_119_31148)">
<path d="M24 12C24 18.6274 18.6274 24 12 24C5.37262 24 0 18.6274 0 12C0 12.0029 12 0.0013125 12 0C18.6274 0 24 5.37262 24 12Z" fill="#0052B4"/>
<path d="M11.9678 12H11.9999C11.9999 11.9892 11.9999 11.9787 11.9999 11.9679C11.9892 11.9786 11.9785 11.9893 11.9678 12Z" fill="#F0F0F0"/>
<path d="M12 6.26086C12 4.14937 12 2.76586 12 0H11.998C5.3715 0.001125 0 5.37323 0 12H6.26086V8.47448L9.78642 12H11.9679C11.9786 11.9893 11.9894 11.9786 12 11.9679C12 11.1594 12 10.4381 12 9.78647L8.47444 6.26086H12Z" fill="#F0F0F0"/>
<path d="M6.07124 1.56519C4.19441 2.63389 2.63413 4.19417 1.56543 6.071V12H4.69588V4.69573V4.69564H12.0002C12.0002 3.70831 12.0002 2.76772 12.0002 1.56519H6.07124Z" fill="#D80027"/>
<path d="M11.9998 10.5243L7.73641 6.26086C7.73641 6.26086 6.26074 6.26096 6.26074 6.26086V6.26096L11.9998 12H11.9998C11.9998 12 11.9998 10.9824 11.9998 10.5243Z" fill="#D80027"/>
<path d="M20.7808 8.9043L21.0398 9.70145H21.878L21.1999 10.1941L21.4589 10.9912L20.7808 10.4986L20.1027 10.9912L20.3617 10.1941L19.6836 9.70145H20.5218L20.7808 8.9043Z" fill="#D80027"/>
<path d="M17.7854 14.6434L18.174 15.8392H19.4312L18.414 16.5782L18.8026 17.7739L17.7854 17.0349L16.7682 17.7739L17.1568 16.5782L16.1396 15.8392H17.3969L17.7854 14.6434Z" fill="#D80027"/>
<path d="M17.8978 5.2522L18.2216 6.24871H19.2693L18.4216 6.86442L18.7454 7.86088L17.8978 7.24499L17.0502 7.86088L17.374 6.86442L16.5264 6.24871H17.574L17.8978 5.2522Z" fill="#D80027"/>
<path d="M15.0149 8.86951L15.4034 10.0653H16.6607L15.6435 10.8042L16.0321 12L15.0149 11.261L13.9977 12L14.3863 10.8042L13.3691 10.0653H14.6264L15.0149 8.86951Z" fill="#D80027"/>
</g>
<defs>
<clipPath id="clip0_119_31148">
<rect width="24" height="24" fill="white"/>
</clipPath>
</defs>
</svg>
