<svg width="24" height="24" viewBox="0 0 24 24" fill="none" xmlns="http://www.w3.org/2000/svg">
<g clip-path="url(#clip0_119_31267)">
<path d="M24 12C24 18.6274 18.6274 24 12 24C5.37262 24 0 18.6274 0 12C0 12.0029 12 0.0013125 12 0C18.6274 0 24 5.37262 24 12Z" fill="#FFDA44"/>
<path d="M12.0001 5.73914V9.78646L7.82617 5.73914H12.0001Z" fill="#0052B4"/>
<path d="M6.26098 12H9.78649L6.26098 7.30432L5.73926 10.9565L6.26098 12Z" fill="#0052B4"/>
<path d="M11.9678 12H11.9999C11.9999 11.9892 11.9999 11.9787 11.9999 11.9679C11.9892 11.9786 11.9785 11.9893 11.9678 12Z" fill="#F0F0F0"/>
<path d="M12 6.26086C12 4.14937 12 2.76586 12 0H11.998C5.37145 0.001125 0 5.37323 0 12H6.26086V8.47448L9.78638 12H11.9679C11.9786 11.9893 11.9893 11.9786 12 11.9679C12 11.1594 12 10.4381 12 9.78647L8.47444 6.26086H12Z" fill="#F0F0F0"/>
<path d="M11.9999 10.5243L7.73637 6.26086H6.26074V6.26096L11.9998 12H11.9999C11.9999 12 11.9999 10.9824 11.9999 10.5243Z" fill="#D80027"/>
<path d="M6.07124 1.56519C5.60863 1.82862 5.16543 2.1222 4.74393 2.44269H5.2363L3.93496 3.38834L4.43193 4.9182L3.13059 3.97273L2.99212 4.07337C2.45179 4.68697 1.97273 5.35578 1.56543 6.071V12H4.69588V4.69573V4.69564H12.0002C12.0002 3.70831 12.0002 2.76772 12.0002 1.56519H6.07124Z" fill="#D80027"/>
<path d="M5.12601 2.16333C4.99659 2.25394 4.86899 2.34708 4.74332 2.44266L3.93449 3.38831L3.13012 3.97266L2.99048 4.0741C2.69582 4.40878 2.41949 4.75997 2.16309 5.1262C2.45535 5.26805 2.78343 5.34778 3.13012 5.34778C4.35477 5.34778 5.34749 4.35506 5.34749 3.13041C5.34759 2.78363 5.2679 2.45564 5.12601 2.16333Z" fill="#0052B4"/>
<path d="M2.99023 4.07406L3.12987 3.97263L4.43122 4.91814L3.9342 3.38828L5.23545 2.44263H4.74298C4.10577 2.92727 3.51856 3.47402 2.99023 4.07406Z" fill="#FFDA44"/>
<path d="M8.29452 2.08691L8.55355 2.88402H9.39167L8.71362 3.37673L8.97252 4.17384L8.29452 3.68118L7.61647 4.17384L7.87531 3.37673L7.19727 2.88402H8.03544L8.29452 2.08691Z" fill="#FFDA44"/>
<path d="M3.13041 7.30432L3.38944 8.10143H4.22756L3.54956 8.59418L3.80845 9.39129L3.13041 8.89859L2.45231 9.39129L2.7112 8.59418L2.0332 8.10143H2.87133L3.13041 7.30432Z" fill="#FFDA44"/>
</g>
<defs>
<clipPath id="clip0_119_31267">
<rect width="24" height="24" fill="white"/>
</clipPath>
</defs>
</svg>
