<svg width="24" height="24" viewBox="0 0 24 24" fill="none" xmlns="http://www.w3.org/2000/svg">
<g clip-path="url(#clip0_119_31132)">
<path d="M12 24C18.6274 24 24 18.6274 24 12C24 5.37258 18.6274 0 12 0C5.37258 0 0 5.37258 0 12C0 18.6274 5.37258 24 12 24Z" fill="#F0F0F0"/>
<path d="M0 12C0 18.6274 5.37262 24 12 24C12 19.4365 12 12 12 12C12 12 4.17389 12 0 12Z" fill="#0052B4"/>
<path d="M12 0C18.6274 0 24 5.37262 24 12C19.4365 12 12 12 12 12C12 12 12 4.17389 12 0Z" fill="#D80027"/>
<path d="M7.14313 4.17395L7.92017 6.56542H10.4347L8.40041 8.04339L9.17741 10.4349L7.14313 8.95684L5.10884 10.4349L5.88584 8.04339L3.85156 6.56542H6.36608L7.14313 4.17395Z" fill="#0052B4"/>
<path d="M16.857 13.5652L17.634 15.9567H20.1486L18.1142 17.4346L18.8913 19.8261L16.857 18.3481L14.8227 19.8261L15.5997 17.4346L13.5654 15.9567H16.0799L16.857 13.5652Z" fill="#D80027"/>
</g>
<defs>
<clipPath id="clip0_119_31132">
<rect width="24" height="24" fill="white"/>
</clipPath>
</defs>
</svg>
