<svg width="24" height="24" viewBox="0 0 24 24" fill="none" xmlns="http://www.w3.org/2000/svg">
<g clip-path="url(#clip0_119_31252)">
<path d="M20.4853 20.4853C15.799 25.1715 8.20108 25.1715 3.5147 20.4853C-1.17158 15.799 -1.17158 8.20097 3.51475 3.51464C8.20103 -1.17164 15.0611 -0.433783 19.7474 4.25254C24.4337 8.93883 25.1716 15.799 20.4853 20.4853Z" fill="black"/>
<path d="M3.51465 3.51467C8.20093 -1.17161 15.7989 -1.17152 20.4852 3.51472C25.1715 8.201 25.1715 15.799 20.4852 20.4853" fill="#A2001D"/>
<path d="M9.17152 16.174L9.36577 16.7718H9.99441L9.48582 17.1413L9.68012 17.7392L9.17152 17.3697L8.66293 17.7392L8.85718 17.1413L8.34863 16.7718H8.97723L9.17152 16.174Z" fill="#F0F0F0"/>
<path d="M7.5658 10.4348L7.88966 11.4313H8.93732L8.08968 12.0471L8.41345 13.0435L7.5658 12.4277L6.71821 13.0435L7.04202 12.0471L6.19434 11.4313H7.24209L7.5658 10.4348Z" fill="#F0F0F0"/>
<path d="M7.5658 17.7393L7.88957 18.7357H8.93732L8.08959 19.3515L8.41345 20.3479L7.5658 19.7321L6.71821 20.3479L7.04193 19.3515L6.19434 18.7357H7.24195L7.5658 17.7393Z" fill="#F0F0F0"/>
<path d="M10.6292 13.0436L10.9531 14.04H12.0008L11.1531 14.6558L11.4769 15.6523L10.6292 15.0364L9.78164 15.6523L10.1055 14.6558L9.25781 14.04H10.3055L10.6292 13.0436Z" fill="#F0F0F0"/>
<path d="M4.50233 13.0436L4.82619 14.04H5.8738L5.0262 14.6558L5.34992 15.6523L4.50233 15.0364L3.65469 15.6523L3.97855 14.6558L3.13086 14.04H4.17856L4.50233 13.0436Z" fill="#F0F0F0"/>
<path d="M20.0879 8.88563C19.5516 8.34933 18.8547 8.0325 18.1059 7.97808L20.3475 6.23466C19.4547 5.34192 18.2582 4.93875 17.0906 5.02402C16.9509 4.52171 16.6844 4.04724 16.2894 3.65222L15.4039 5.42307C15.3459 5.31722 15.2723 5.21761 15.1826 5.12794C14.6732 4.61855 13.8473 4.61855 13.338 5.12794C12.8286 5.63733 12.8285 6.46317 13.338 6.97257C13.4276 7.06224 13.5273 7.13578 13.6331 7.19391L11.8623 8.07933C12.2574 8.47449 12.7322 8.74116 13.2348 8.88085C13.1493 10.0484 13.552 11.2448 14.4448 12.1375L16.4032 9.6195C16.5506 9.47442 16.7451 9.39432 16.9521 9.39432C17.1612 9.39432 17.3577 9.47569 17.5055 9.62358C17.6533 9.77138 17.7348 9.96792 17.7348 10.1769C17.7348 10.386 17.6533 10.5825 17.5055 10.7303L18.2434 11.4683C18.5883 11.1233 18.7782 10.6648 18.7782 10.177C18.7782 9.77789 18.6509 9.39849 18.4159 9.0848C18.7584 9.17625 19.082 9.35541 19.3502 9.62358C20.1639 10.4373 20.1639 11.7613 19.3502 12.575L20.0881 13.3129C20.6793 12.7216 21.0049 11.9355 21.0049 11.0993C21.0048 10.263 20.6791 9.47691 20.0879 8.88563Z" fill="#FFDA44"/>
</g>
<defs>
<clipPath id="clip0_119_31252">
<rect width="24" height="24" fill="white"/>
</clipPath>
</defs>
</svg>
