<svg width="24" height="24" viewBox="0 0 24 24" fill="none" xmlns="http://www.w3.org/2000/svg">
<g clip-path="url(#clip0_119_31097)">
<path d="M12 24C18.6274 24 24 18.6274 24 12C24 5.37258 18.6274 0 12 0C5.37258 0 0 5.37258 0 12C0 18.6274 5.37258 24 12 24Z" fill="#FFDA44"/>
<path d="M13.8249 23.862C15.7766 23.5643 17.5732 22.7957 19.0963 21.6768L12 12L13.8249 23.862Z" fill="#D80027"/>
<path d="M10.1752 0.137939C8.22359 0.435689 6.42706 1.20425 4.90381 2.32311L12.0002 12L10.1752 0.137939Z" fill="#D80027"/>
<path d="M4.90381 21.6768C6.42696 22.7957 8.2235 23.5643 10.1751 23.8621L12.0002 12L4.90381 21.6768Z" fill="#D80027"/>
<path d="M2.32336 4.90356C1.20445 6.42681 0.43598 8.2233 0.138184 10.175L12.0002 12L2.32336 4.90356Z" fill="#D80027"/>
<path d="M0.138184 13.8249C0.435934 15.7766 1.2045 17.5732 2.3234 19.0963L12.0002 12L0.138184 13.8249Z" fill="#D80027"/>
<path d="M23.862 10.1751C23.5642 8.22342 22.7957 6.42689 21.6768 4.90369L12 12L23.862 10.1751Z" fill="#D80027"/>
<path d="M19.0963 2.32306C17.5731 1.20421 15.7766 0.435689 13.8249 0.137939L12 12L19.0963 2.32306Z" fill="#D80027"/>
<path d="M21.6769 19.0964C22.7958 17.5732 23.5643 15.7766 23.8621 13.825L12 12L21.6769 19.0964Z" fill="#D80027"/>
<path d="M12.0001 16.1738C14.3052 16.1738 16.174 14.3051 16.174 11.9999C16.174 9.69476 14.3052 7.82605 12.0001 7.82605C9.69489 7.82605 7.82617 9.69476 7.82617 11.9999C7.82617 14.3051 9.69489 16.1738 12.0001 16.1738Z" fill="#D80027"/>
<path d="M11.9996 15.1304C13.7285 15.1304 15.13 13.7289 15.13 12C15.13 10.2711 13.7285 8.86951 11.9996 8.86951C10.2707 8.86951 8.86914 10.2711 8.86914 12C8.86914 13.7289 10.2707 15.1304 11.9996 15.1304Z" fill="#FFDA44"/>
</g>
<defs>
<clipPath id="clip0_119_31097">
<rect width="24" height="24" fill="white"/>
</clipPath>
</defs>
</svg>
