<svg width="24" height="24" viewBox="0 0 24 24" fill="none" xmlns="http://www.w3.org/2000/svg">
<g clip-path="url(#clip0_119_31090)">
<path d="M24 12C24 18.6274 18.6274 24 12 24C5.37262 24 0 18.6274 0 12C4.12172 7.87828 7.61737 4.38263 12 0C18.6274 0 24 5.37262 24 12Z" fill="#D80027"/>
<path d="M12 12C12 5.37262 12 4.59131 12 0C5.37262 0 0 5.37262 0 12H12Z" fill="#0052B4"/>
<path d="M9.61195 7.82617L9.80625 8.42406H10.4348L9.92625 8.79348L10.1205 9.39138L9.61195 9.02186L9.10336 9.39138L9.29766 8.79348L8.78906 8.42406H9.41766L9.61195 7.82617Z" fill="#F0F0F0"/>
<path d="M6.45448 3.13049L6.77824 4.12701H7.82599L6.9783 4.74271L7.30216 5.73918L6.45448 5.12329L5.60684 5.73918L5.93065 4.74271L5.08301 4.12701H6.13066L6.45448 3.13049Z" fill="#F0F0F0"/>
<path d="M9.58534 4.17395L9.9091 5.17051H10.9568L10.1092 5.78622L10.4329 6.78268L9.58534 6.16679L8.73769 6.78268L9.06151 5.78622L8.21387 5.17051H9.26152L9.58534 4.17395Z" fill="#F0F0F0"/>
<path d="M7.11073 8.3479L7.43454 9.34442H8.4822L7.63455 9.96012L7.95837 10.9566L7.11073 10.3407L6.26309 10.9566L6.5869 9.96012L5.73926 9.34442H6.78696L7.11073 8.3479Z" fill="#F0F0F0"/>
<path d="M4.36752 5.73914L4.69133 6.73565H5.73903L4.89134 7.35135L5.21516 8.34782L4.36752 7.73198L3.51992 8.34782L3.84369 7.35135L2.99609 6.73565H4.04375L4.36752 5.73914Z" fill="#F0F0F0"/>
</g>
<defs>
<clipPath id="clip0_119_31090">
<rect width="24" height="24" fill="white"/>
</clipPath>
</defs>
</svg>
