<svg width="24" height="24" viewBox="0 0 24 24" fill="none" xmlns="http://www.w3.org/2000/svg">
<g clip-path="url(#clip0_119_31089)">
<path d="M24 12C24 18.6274 18.6274 24 12 24C5.37262 24 0 18.6274 0 12C0.521719 12 12 10.4348 12 10.4348L24 12Z" fill="#338AF3"/>
<path d="M0 12C0 5.37262 5.37262 0 12 0C18.6274 0 24 5.37262 24 12" fill="#F0F0F0"/>
<path d="M16.7631 8.28015L11.9998 13.0434L7.23659 8.28015C6.6206 9.19454 6.26074 10.2951 6.26074 11.4782V13.0434C6.26074 15.5567 7.88473 17.6976 10.1383 18.4725C9.83754 19.062 9.88826 19.7977 10.329 20.3477C10.9144 19.8786 11.5204 19.3929 12.0346 18.981C12.5487 19.3929 13.1548 19.8786 13.7401 20.3477C14.186 19.7912 14.2331 19.0445 13.9204 18.4516C16.1433 17.6598 17.7389 15.5346 17.7389 13.0434V11.4782C17.739 10.2951 17.3791 9.19459 16.7631 8.28015Z" fill="#6DA544"/>
<path d="M12.0001 17.2174C9.69855 17.2174 7.82617 15.345 7.82617 13.0435V11.4783C7.82617 9.17682 9.69859 7.30444 12.0001 7.30444C14.3015 7.30444 16.174 9.17687 16.174 11.4783V13.0435C16.174 15.345 14.3016 17.2174 12.0001 17.2174Z" fill="#FFDA44"/>
<path d="M14.609 13.0435V11.4783C14.609 10.0399 13.4387 8.86963 12.0003 8.86963C10.5619 8.86963 9.3916 10.0399 9.3916 11.4783V13.0435L12.0003 13.5652L14.609 13.0435Z" fill="#338AF3"/>
<path d="M9.3916 13.0435C9.3916 14.4819 10.5619 15.6521 12.0003 15.6521C13.4387 15.6521 14.609 14.4819 14.609 13.0435H9.3916Z" fill="#6DA544"/>
<path d="M15.13 7.30439C15.13 6.43997 14.4292 5.73919 13.5648 5.73919C13.1638 5.73919 12.7983 5.89013 12.5213 6.13805V5.21742H13.043V4.17394H12.5213V3.65222H11.4778V4.17394H10.9561V5.21742H11.4778V6.13805C11.2008 5.89013 10.8353 5.73919 10.4343 5.73919C9.56992 5.73919 8.86914 6.43997 8.86914 7.30439C8.86914 7.76785 9.07075 8.1841 9.39086 8.47074V9.39136H14.6082V8.47074C14.9284 8.1841 15.13 7.76785 15.13 7.30439Z" fill="#FFDA44"/>
</g>
<defs>
<clipPath id="clip0_119_31089">
<rect width="24" height="24" fill="white"/>
</clipPath>
</defs>
</svg>
