<svg width="24" height="24" viewBox="0 0 24 24" fill="none" xmlns="http://www.w3.org/2000/svg">
<g clip-path="url(#clip0_119_31070)">
<path d="M12 24C18.6274 24 24 18.6274 24 12C24 5.37258 18.6274 0 12 0C5.37258 0 0 5.37258 0 12C0 18.6274 5.37258 24 12 24Z" fill="#F0F0F0"/>
<path d="M0 12C0 5.37263 5.37262 0 12 0C18.6274 0 24 5.37263 24 12" fill="#D80027"/>
<path d="M7.30451 6.26077C7.30451 4.51242 8.53324 3.05189 10.1741 2.69353C9.92187 2.6385 9.66026 2.60864 9.39143 2.60864C7.37435 2.60864 5.73926 4.24374 5.73926 6.26081C5.73926 8.27789 7.37435 9.91299 9.39143 9.91299C9.66016 9.91299 9.92182 9.88313 10.1741 9.82805C8.53324 9.46969 7.30451 8.00916 7.30451 6.26077Z" fill="#F0F0F0"/>
<path d="M12.0005 2.86951L12.2595 3.66662H13.0977L12.4195 4.15932L12.6786 4.95643L12.0005 4.46382L11.3224 4.95643L11.5814 4.15932L10.9033 3.66662H11.7414L12.0005 2.86951Z" fill="#F0F0F0"/>
<path d="M9.96737 4.43469L10.2264 5.23185H11.0645L10.3864 5.7245L10.6455 6.52161L9.96737 6.029L9.28918 6.52161L9.54826 5.7245L8.87012 5.23185H9.70829L9.96737 4.43469Z" fill="#F0F0F0"/>
<path d="M14.0337 4.43469L14.2928 5.23185H15.1309L14.4527 5.7245L14.7118 6.52161L14.0337 6.029L13.3556 6.52161L13.6146 5.7245L12.9365 5.23185H13.7746L14.0337 4.43469Z" fill="#F0F0F0"/>
<path d="M13.2505 6.78259L13.5095 7.57975H14.3476L13.6695 8.0724L13.9286 8.86951L13.2505 8.3769L12.5724 8.86951L12.8314 8.0724L12.1533 7.57975H12.9914L13.2505 6.78259Z" fill="#F0F0F0"/>
<path d="M10.7495 6.78259L11.0085 7.57975H11.8468L11.1686 8.0724L11.4277 8.86951L10.7495 8.3769L10.0714 8.86951L10.3304 8.0724L9.65234 7.57975H10.4905L10.7495 6.78259Z" fill="#F0F0F0"/>
</g>
<defs>
<clipPath id="clip0_119_31070">
<rect width="24" height="24" fill="white"/>
</clipPath>
</defs>
</svg>
