<svg width="24" height="24" viewBox="0 0 24 24" fill="none" xmlns="http://www.w3.org/2000/svg">
<g clip-path="url(#clip0_119_31127)">
<path d="M12 24C18.6274 24 24 18.6274 24 12C24 5.37258 18.6274 0 12 0C5.37258 0 0 5.37258 0 12C0 18.6274 5.37258 24 12 24Z" fill="#F0F0F0"/>
<path d="M12 23.9999C18.6274 23.9999 24 18.6273 24 11.9999C24 10.5321 23.736 9.12599 23.2536 7.82605H0.746391C0.264047 9.12599 0 10.5321 0 11.9999C0 18.6273 5.37262 23.9999 12 23.9999Z" fill="#0052B4"/>
<path d="M12.0002 24.0001C17.1598 24.0001 21.5583 20.7436 23.2538 16.174H0.746582C2.4421 20.7436 6.84061 24.0001 12.0002 24.0001Z" fill="#D80027"/>
<path d="M3.10303 6.78259V12.7688C3.10303 16.174 7.55151 17.2174 7.55151 17.2174C7.55151 17.2174 11.9999 16.174 11.9999 12.7688V6.78259H3.10303Z" fill="#F0F0F0"/>
<path d="M4.14648 6.78259V12.7688C4.14648 13.1686 4.23527 13.5461 4.41114 13.9H10.6918C10.8677 13.5461 10.9564 13.1686 10.9564 12.7688V6.78259H4.14648Z" fill="#D80027"/>
<path d="M9.63825 10.9565H8.07309V9.91297H9.11657V8.86949H8.07309V7.82605H7.02961V8.86949H5.98617V9.91297H7.02961V10.9565H5.46436V11.9999H7.02961V13.0434H8.07309V11.9999H9.63825V10.9565Z" fill="#F0F0F0"/>
<path d="M5.8344 15.3567C6.50682 15.7793 7.19766 16.0246 7.55134 16.1337C7.90501 16.0246 8.59585 15.7793 9.26827 15.3567C9.94637 14.9305 10.4217 14.4431 10.6916 13.9C10.3939 13.6894 10.0307 13.5652 9.6383 13.5652C9.49543 13.5652 9.35663 13.5821 9.22318 13.6132C8.94038 12.9706 8.29843 12.5217 7.55138 12.5217C6.80434 12.5217 6.16234 12.9706 5.87959 13.6132C5.74613 13.5821 5.60729 13.5652 5.46446 13.5652C5.07207 13.5652 4.70884 13.6894 4.41113 13.9C4.6809 14.443 5.15626 14.9304 5.8344 15.3567Z" fill="#0052B4"/>
</g>
<defs>
<clipPath id="clip0_119_31127">
<rect width="24" height="24" fill="white"/>
</clipPath>
</defs>
</svg>
