<svg width="24" height="24" viewBox="0 0 24 24" fill="none" xmlns="http://www.w3.org/2000/svg">
<g clip-path="url(#clip0_119_31056)">
<path d="M23.2536 16.1739C23.736 14.8739 24 13.4678 24 12C24 10.5321 23.736 9.12606 23.2536 7.82608L12 6.78259L0.746391 7.82608C0.264047 9.12606 0 10.5321 0 12C0 13.4678 0.264047 14.8739 0.746391 16.1739L12 17.2173L23.2536 16.1739Z" fill="#F0F0F0"/>
<path d="M11.9998 24.0001C17.1593 24.0001 21.5578 20.7436 23.2533 16.174H0.746094C2.44166 20.7436 6.84013 24.0001 11.9998 24.0001Z" fill="#D80027"/>
<path d="M11.9998 0C6.84013 0 2.44166 3.2565 0.746094 7.82611H23.2534C21.5578 3.2565 17.1593 0 11.9998 0Z" fill="#496E2D"/>
<path d="M11.9998 9.39136L12.6473 11.3842H14.7427L13.0475 12.6159L13.6951 14.6087L11.9998 13.3772L10.3045 14.6087L10.9521 12.6159L9.25684 11.3842H11.3523L11.9998 9.39136Z" fill="black"/>
<path d="M15.5657 2.34778V4.78251C15.5657 5.16618 15.2537 5.47818 14.8701 5.47818V6.52167C15.8291 6.52167 16.6092 5.74153 16.6092 4.78251V2.34778H15.5657Z" fill="#F0F0F0"/>
<path d="M8.08727 4.78251C8.08727 5.16618 7.77523 5.47818 7.3916 5.47818V6.52167C8.35062 6.52167 9.13076 5.74153 9.13076 4.78251V2.34778H8.08727V4.78251Z" fill="#F0F0F0"/>
<path d="M14 2.34778H15.0435V4.78251H14V2.34778Z" fill="#F0F0F0"/>
<path d="M12.435 3.73903C12.435 3.83493 12.3569 3.91298 12.2611 3.91298C12.1652 3.91298 12.0871 3.83493 12.0871 3.73903V2.34778H11.0436V3.73903C11.0436 3.83493 10.9656 3.91298 10.8697 3.91298C10.7738 3.91298 10.6958 3.83493 10.6958 3.73903V2.34778H9.65234V3.73903C9.65234 4.41037 10.1984 4.95647 10.8697 4.95647C11.1282 4.95647 11.3681 4.87523 11.5654 4.73728C11.7627 4.87523 12.0025 4.95647 12.261 4.95647C12.3131 4.95647 12.3643 4.95281 12.4146 4.94639C12.3407 5.25103 12.0663 5.47818 11.7393 5.47818V6.52167C12.6983 6.52167 13.4784 5.74153 13.4784 4.78251V3.73903V2.34778H12.4349L12.435 3.73903Z" fill="#F0F0F0"/>
<path d="M9.65234 5.47827H11.2175V6.52176H9.65234V5.47827Z" fill="#F0F0F0"/>
</g>
<defs>
<clipPath id="clip0_119_31056">
<rect width="24" height="24" fill="white"/>
</clipPath>
</defs>
</svg>
