<svg width="24" height="24" viewBox="0 0 24 24" fill="none" xmlns="http://www.w3.org/2000/svg">
<g clip-path="url(#clip0_119_31071)">
<path d="M12 24C18.6274 24 24 18.6274 24 12C24 5.37258 18.6274 0 12 0C5.37258 0 0 5.37258 0 12C0 18.6274 5.37258 24 12 24Z" fill="#F0F0F0"/>
<path d="M23.0634 7.3478C21.2461 3.03103 16.9771 0 11.9995 0C8.68576 0 5.68609 1.34339 3.51465 3.51511L6.5198 7.3478H23.0634Z" fill="black"/>
<path d="M6.55388 16.6088L3.51465 20.4849C5.68609 22.6566 8.68576 24 11.9995 24C16.9939 24 21.2751 20.9487 23.0819 16.6088H6.55388Z" fill="#496E2D"/>
<path d="M2.6084 8.82605V15.1304H23.5864C23.8555 14.1323 23.9997 13.0831 23.9997 12C23.9997 10.9011 23.8517 9.83705 23.575 8.82605H2.6084Z" fill="#A2001D"/>
<path d="M3.51471 3.51465C-1.17157 8.20093 -1.17157 15.7989 3.51471 20.4853C5.45126 18.5487 7.31374 16.6862 12 12L3.51471 3.51465Z" fill="#0052B4"/>
<path d="M3.90889 9.01648L5.3735 11.0603L7.77013 10.2988L6.27898 12.3235L7.74359 14.3674L5.35728 13.5748L3.86609 15.5995L3.8825 13.0849L1.49609 12.2923L3.89253 11.5309L3.90889 9.01648Z" fill="#FFDA44"/>
</g>
<defs>
<clipPath id="clip0_119_31071">
<rect width="24" height="24" fill="white"/>
</clipPath>
</defs>
</svg>
