<svg width="24" height="24" viewBox="0 0 24 24" fill="none" xmlns="http://www.w3.org/2000/svg">
<g clip-path="url(#clip0_119_31245)">
<path d="M12 24C18.6274 24 24 18.6274 24 12C24 5.37258 18.6274 0 12 0C5.37258 0 0 5.37258 0 12C0 18.6274 5.37258 24 12 24Z" fill="#F0F0F0"/>
<path d="M21.426 9.65211H17.4782C17.4782 8.93176 16.8942 8.34778 16.1739 8.34778L15.1304 10.4347C15.1304 10.4347 16.2434 13.5652 16.2086 13.5652H17.513C18.2334 13.5652 18.8173 12.9812 18.8173 12.2608C19.5377 12.2608 20.1216 11.6769 20.1216 10.9565H20.0782C20.7986 10.9565 21.426 10.3725 21.426 9.65211Z" fill="#ACABB1"/>
<path d="M2.57373 9.65211H6.52155C6.52155 8.93176 7.10553 8.34778 7.82588 8.34778L8.86938 10.4347C8.86938 10.4347 7.75631 13.5652 7.79112 13.5652H6.48678C5.76638 13.5652 5.18245 12.9812 5.18245 12.2608C4.46205 12.2608 3.87811 11.6769 3.87811 10.9565H3.92156C3.20115 10.9565 2.57373 10.3725 2.57373 9.65211Z" fill="#ACABB1"/>
<path d="M16.174 16.6956V17.2173H7.8262V16.6956H5.73926V18.7825H7.8262V19.3042H16.174V18.7825H18.261V16.6956H16.174Z" fill="#FFDA44"/>
<path d="M7.82617 8.34777V13.5651C7.82617 16.7601 12.0001 17.7391 12.0001 17.7391C12.0001 17.7391 16.174 16.7601 16.174 13.5651V8.34777L12.0001 7.82605L7.82617 8.34777Z" fill="#0052B4"/>
<path d="M7.82617 10.4349H16.174V13.5654H7.82617V10.4349Z" fill="#D80027"/>
<path d="M14.087 5.73905V6.52166L13.5653 6.78255L13.0436 6.26078V4.69556H10.9566V6.26078L10.4349 6.78255L9.91312 6.52166V5.73905H7.82617V8.34772H16.174V5.73905H14.087Z" fill="#FFDA44"/>
</g>
<defs>
<clipPath id="clip0_119_31245">
<rect width="24" height="24" fill="white"/>
</clipPath>
</defs>
</svg>
