<svg width="24" height="24" viewBox="0 0 24 24" fill="none" xmlns="http://www.w3.org/2000/svg">
<g clip-path="url(#clip0_119_31261)">
<path d="M12 24C18.6274 24 24 18.6274 24 12C24 5.37258 18.6274 0 12 0C5.37258 0 0 5.37258 0 12C0 18.6274 5.37258 24 12 24Z" fill="#F0F0F0"/>
<path d="M11.9997 0C6.84013 0 2.44161 3.2565 0.746094 7.82611H23.2534C21.5578 3.2565 17.1593 0 11.9997 0Z" fill="#D80027"/>
<path d="M11.9997 24.0001C17.1593 24.0001 21.5578 20.7436 23.2533 16.174H0.746094C2.44161 20.7436 6.84012 24.0001 11.9997 24.0001Z" fill="black"/>
<path d="M7.1697 9.13049L7.81718 11.1232H9.91263L8.2174 12.355L8.86493 14.3479L7.1697 13.1162L5.47446 14.3479L6.12199 12.355L4.42676 11.1232H6.52221L7.1697 9.13049Z" fill="#6DA544"/>
<path d="M16.8299 9.13049L17.4773 11.1232H19.5728L17.8776 12.355L18.5251 14.3479L16.8299 13.1162L15.1346 14.3479L15.7821 12.355L14.0869 11.1232H16.1824L16.8299 9.13049Z" fill="#6DA544"/>
</g>
<defs>
<clipPath id="clip0_119_31261">
<rect width="24" height="24" fill="white"/>
</clipPath>
</defs>
</svg>
