<svg width="24" height="24" viewBox="0 0 24 24" fill="none" xmlns="http://www.w3.org/2000/svg">
<g clip-path="url(#clip0_119_31037)">
<path d="M24 12C24 18.6274 18.6274 24 12 24C5.37262 24 0 18.6274 0 12C4.12172 7.87828 7.61737 4.38263 12 0C18.6274 0 24 5.37262 24 12Z" fill="#D80027"/>
<path d="M12 12C12 5.37262 12 4.59131 12 0C5.37262 0 0 5.37262 0 12H12Z" fill="#0052B4"/>
<path d="M10.435 7.02281L8.96945 7.71224L9.74983 9.13157L8.15847 8.82707L7.95677 10.4347L6.84836 9.25237L5.73986 10.4347L5.53825 8.82707L3.94684 9.13148L4.72722 7.71215L3.26172 7.02281L4.72727 6.33351L3.94684 4.91413L5.5382 5.21859L5.73991 3.61096L6.84836 4.79334L7.95681 3.61096L8.15847 5.21859L9.74988 4.91413L8.96945 6.33356L10.435 7.02281Z" fill="#F0F0F0"/>
<path d="M6.84848 9.25641C8.08214 9.25641 9.08222 8.25633 9.08222 7.02267C9.08222 5.78902 8.08214 4.78894 6.84848 4.78894C5.61482 4.78894 4.61475 5.78902 4.61475 7.02267C4.61475 8.25633 5.61482 9.25641 6.84848 9.25641Z" fill="#0052B4"/>
<path d="M6.84792 8.21314C6.19162 8.21314 5.65771 7.67919 5.65771 7.02289C5.65771 6.36659 6.19167 5.83264 6.84792 5.83264C7.50421 5.83264 8.03817 6.36659 8.03817 7.02289C8.03812 7.67919 7.50412 8.21314 6.84792 8.21314Z" fill="#F0F0F0"/>
</g>
<defs>
<clipPath id="clip0_119_31037">
<rect width="24" height="24" fill="white"/>
</clipPath>
</defs>
</svg>
