<svg width="24" height="24" viewBox="0 0 24 24" fill="none" xmlns="http://www.w3.org/2000/svg">
<g clip-path="url(#clip0_119_31032)">
<path d="M23.5863 8.86955C22.2093 3.76036 17.544 0 11.9997 0C6.45537 0 1.79009 3.76036 0.413086 8.86955L11.9997 9.39131L23.5863 8.86955Z" fill="#A2001D"/>
<path d="M0.413086 15.1304C1.79009 20.2395 6.45537 24 11.9997 24C17.544 24 22.2093 20.2396 23.5863 15.1304L11.9997 14.6086L0.413086 15.1304Z" fill="#A2001D"/>
<path d="M23.5866 8.86951H0.413391C0.144375 9.86762 0 10.9168 0 12C0 13.0831 0.144375 14.1323 0.413391 15.1304H23.5867C23.8556 14.1323 24 13.0831 24 12C24 10.9168 23.8556 9.86762 23.5866 8.86951Z" fill="#6DA544"/>
</g>
<defs>
<clipPath id="clip0_119_31032">
<rect width="24" height="24" fill="white"/>
</clipPath>
</defs>
</svg>
