<svg width="24" height="24" viewBox="0 0 24 24" fill="none" xmlns="http://www.w3.org/2000/svg">
<g clip-path="url(#clip0_119_31203)">
<path d="M24 12C24 18.6274 18.6274 24 12 24C5.37263 24 0 18.6274 0 12C0 12.0029 12 0.0013125 12 0C18.6274 0 24 5.37262 24 12Z" fill="#338AF3"/>
<path d="M5.73926 11.9999H9.78654L6.26098 7.82605L5.73926 9.39125V11.9999Z" fill="#0052B4"/>
<path d="M12.0001 9.78646L7.82617 5.73914H12.0001L12.0001 9.78646Z" fill="#0052B4"/>
<path d="M11.9678 12H11.9999C11.9999 11.9892 11.9999 11.9787 11.9999 11.9679C11.9892 11.9786 11.9785 11.9893 11.9678 12Z" fill="#F0F0F0"/>
<path d="M12 6.26086C12 4.14937 12 2.76581 12 0H11.998C5.3715 0.001125 0 5.37323 0 12H6.26091V8.47448L9.78642 12H11.968C11.9787 11.9893 11.9894 11.9786 12.0001 11.9679C12.0001 11.1594 12.0001 10.4381 12.0001 9.78647L8.47444 6.26086H12Z" fill="#F0F0F0"/>
<path d="M6.07124 1.56519C4.19441 2.63389 2.63413 4.19417 1.56543 6.071V12H4.69588V4.69573V4.69564H12.0002C12.0002 3.70831 12.0002 2.76772 12.0002 1.56519H6.07124Z" fill="#D80027"/>
<path d="M12.0004 10.5243L7.73686 6.26086H6.26123V6.26096L12.0003 12H12.0004C12.0004 12 12.0004 10.9824 12.0004 10.5243Z" fill="#D80027"/>
<path d="M13.0972 19.826L13.3562 20.6232H14.1944L13.5163 21.1159L13.7753 21.913L13.0972 21.4204L12.4191 21.913L12.6781 21.1159L12 20.6232H12.8381L13.0972 19.826Z" fill="#FFDA44"/>
<path d="M19.7725 14.6086L20.0315 15.4058H20.8697L20.1916 15.8985L20.4507 16.6956L19.7725 16.203L19.0945 16.6956L19.3535 15.8985L18.6753 15.4058H19.5135L19.7725 14.6086Z" fill="#FFDA44"/>
<path d="M21.4448 6.78259L21.7038 7.57975H22.542L21.864 8.07241L22.123 8.86951L21.4448 8.3769L20.7668 8.86951L21.0258 8.07241L20.3477 7.57975H21.1858L21.4448 6.78259Z" fill="#FFDA44"/>
<path d="M21.8594 12.5217L22.1184 13.3189H22.9566L22.2785 13.8116L22.5376 14.6087L21.8594 14.1161L21.1814 14.6087L21.4404 13.8116L20.7622 13.3189H21.6004L21.8594 12.5217Z" fill="#FFDA44"/>
<path d="M14.299 17.9512L15.0459 18.3318L15.6386 17.7391L15.5075 18.5669L16.2543 18.9474L15.4264 19.0786L15.2953 19.9064L14.9148 19.1596L14.0869 19.2908L14.6796 18.6982L14.299 17.9512Z" fill="#FFDA44"/>
<path d="M14.299 14.8208L15.0459 15.2013L15.6386 14.6086L15.5075 15.4365L16.2543 15.8169L15.4264 15.9481L15.2953 16.776L14.9148 16.0291L14.0869 16.1603L14.6796 15.5677L14.299 14.8208Z" fill="#FFDA44"/>
<path d="M16.9079 16.8273L17.6548 17.2079L18.2475 16.6152L18.1164 17.443L18.8632 17.8235L18.0353 17.9547L17.9041 18.7825L17.5237 18.0356L16.6958 18.1669L17.2884 17.5743L16.9079 16.8273Z" fill="#FFDA44"/>
<path d="M16.9079 10.1251L17.6548 10.5056L18.2475 9.91296L18.1164 10.7408L18.8632 11.1213L18.0353 11.2524L17.9041 12.0803L17.5237 11.3335L16.6958 11.4646L17.2884 10.872L16.9079 10.1251Z" fill="#FFDA44"/>
<path d="M19.4362 10.0448L20.1831 10.4253L20.7758 9.83264L20.6447 10.6605L21.3915 11.0409L20.5636 11.1721L20.4325 12L20.052 11.2531L19.2241 11.3843L19.8168 10.7917L19.4362 10.0448Z" fill="#FFDA44"/>
</g>
<defs>
<clipPath id="clip0_119_31203">
<rect width="24" height="24" fill="white"/>
</clipPath>
</defs>
</svg>
