<svg width="24" height="24" viewBox="0 0 24 24" fill="none" xmlns="http://www.w3.org/2000/svg">
<g clip-path="url(#clip0_119_31020)">
<path d="M12 24C18.6274 24 24 18.6274 24 12C24 5.37258 18.6274 0 12 0C5.37258 0 0 5.37258 0 12C0 18.6274 5.37258 24 12 24Z" fill="#338AF3"/>
<path d="M11.9649 7.82605C9.65964 7.82605 7.79102 9.69477 7.79102 11.9999C7.79102 14.3051 9.65969 16.1738 11.9649 16.1738C14.27 16.1738 16.1388 14.3051 16.1388 11.9999C16.1388 9.69477 14.27 7.82605 11.9649 7.82605ZM10.9214 11.9999C10.9214 11.4237 11.3886 10.9565 11.9649 10.9565C12.5412 10.9565 13.0084 11.4237 13.0084 11.9999C13.0084 12.5763 12.5412 13.0434 11.9649 13.0434C11.3886 13.0434 10.9214 12.5763 10.9214 11.9999ZM13.0468 10.215C12.8848 10.1166 12.7083 10.0402 12.5214 9.98858V8.91983C12.992 9.0043 13.426 9.19363 13.7985 9.46335L13.0468 10.215ZM11.4779 9.97072C11.2821 10.0176 11.0972 10.0919 10.9272 10.1896L10.172 9.43442C10.5538 9.16714 10.9976 8.9825 11.4779 8.90736V9.97072ZM10.9271 13.8103C11.0971 13.9079 11.2821 13.9823 11.4779 14.0291V15.0924C10.9975 15.0174 10.5538 14.8326 10.172 14.5654L10.9271 13.8103ZM12.5214 14.0113C12.7083 13.9597 12.8849 13.8833 13.0468 13.7849L13.7984 14.5366C13.426 14.8063 12.992 14.9956 12.5214 15.0801V14.0113H12.5214V14.0113ZM13.7752 13.0378C13.8671 12.8778 13.939 12.7047 13.9861 12.5217H15.0512C14.9728 12.9887 14.7912 13.4203 14.5304 13.7928L13.7752 13.0378ZM13.9861 11.4782C13.939 11.2952 13.8671 11.1223 13.7752 10.9622L14.5304 10.2071C14.7912 10.5796 14.9728 11.0112 15.0512 11.4782H13.9861V11.4782H13.9861ZM9.42827 10.1664L10.1799 10.9181C10.0754 11.0901 9.99513 11.2783 9.94366 11.4782H8.87856C8.9598 10.9942 9.15194 10.548 9.42827 10.1664ZM8.87856 12.5217H9.94366C9.99508 12.7215 10.0754 12.9098 10.1799 13.0818L9.42827 13.8335C9.15194 13.4518 8.9598 13.0057 8.87856 12.5217Z" fill="#F0F0F0"/>
<path d="M18.7478 12C18.7478 10.1447 18.0026 8.4637 16.7955 7.23914L15.6888 8.3459C16.6126 9.28715 17.1826 10.577 17.1826 12C17.1826 14.8815 14.8466 17.2174 11.9652 17.2174C9.08365 17.2174 6.74782 14.8815 6.74782 12C6.74782 10.5592 7.33174 9.25485 8.27595 8.31075L7.16918 7.20398C5.94176 8.4314 5.18262 10.1271 5.18262 12C5.18262 15.1038 7.26748 17.7207 10.1132 18.5266C9.80121 19.1193 9.84874 19.8655 10.2944 20.4217C10.8798 19.9526 11.4859 19.4669 12 19.0549C12.5141 19.4669 13.1202 19.9526 13.7055 20.4217C14.1556 19.86 14.1999 19.1043 13.8776 18.5088C16.6922 17.6831 18.7478 15.0818 18.7478 12Z" fill="#F0F0F0"/>
</g>
<defs>
<clipPath id="clip0_119_31020">
<rect width="24" height="24" fill="white"/>
</clipPath>
</defs>
</svg>
