<svg width="24" height="24" viewBox="0 0 24 24" fill="none" xmlns="http://www.w3.org/2000/svg">
<g clip-path="url(#clip0_119_31159)">
<path d="M24 12.0001C24 11.4696 23.9651 10.9472 23.8984 10.4349H10.4347C7.98306 7.9834 3.51452 3.51515 3.5147 3.51477C-1.17157 8.20104 -1.17157 15.799 3.5147 20.4854L10.4348 13.5653H23.8984C23.9651 13.0529 24 12.5306 24 12.0001Z" fill="black"/>
<path d="M23.9963 12.2729C23.9958 12.2961 23.9953 12.3194 23.9946 12.3425C23.9952 12.3193 23.9958 12.2961 23.9963 12.2729Z" fill="#F0F0F0"/>
<path d="M23.9848 12.6008C23.9838 12.6238 23.9822 12.6466 23.981 12.6695C23.9822 12.6466 23.9837 12.6238 23.9848 12.6008Z" fill="#F0F0F0"/>
<path d="M23.9689 12.8624C23.9665 12.8961 23.9641 12.9298 23.9614 12.9634C23.9641 12.9298 23.9664 12.8961 23.9689 12.8624Z" fill="#F0F0F0"/>
<path d="M23.9287 10.6921C23.9331 10.7323 23.9375 10.7723 23.9415 10.8126C23.9375 10.7723 23.9331 10.7323 23.9287 10.6921Z" fill="#F0F0F0"/>
<path d="M23.981 11.3306C23.9822 11.3534 23.9838 11.3763 23.9848 11.3992C23.9837 11.3763 23.9822 11.3534 23.981 11.3306Z" fill="#F0F0F0"/>
<path d="M23.9946 11.6576C23.9953 11.6807 23.9958 11.704 23.9963 11.7272C23.9958 11.7039 23.9952 11.6807 23.9946 11.6576Z" fill="#F0F0F0"/>
<path d="M23.9614 11.0366C23.9641 11.0702 23.9665 11.1039 23.9689 11.1376C23.9664 11.1039 23.9641 11.0702 23.9614 11.0366Z" fill="#F0F0F0"/>
<path d="M23.8984 10.4347C23.9038 10.4758 23.9086 10.5172 23.9135 10.5584C23.2013 4.6108 18.1395 0 12 0C8.68626 0 5.68622 1.3432 3.51465 3.51487L10.4345 10.4348H23.8984V10.4347Z" fill="#D80027"/>
<path d="M23.8984 13.5652H10.4345L3.51465 20.4851C5.68622 22.6567 8.68626 24 12 24C18.1395 24 23.2014 19.3892 23.9135 13.4415C23.9086 13.4827 23.9037 13.5241 23.8984 13.5652Z" fill="#6DA544"/>
<path d="M23.9415 13.1875C23.9375 13.2277 23.9331 13.2678 23.9287 13.3079C23.9331 13.2678 23.9376 13.2278 23.9415 13.1875Z" fill="#F0F0F0"/>
<path d="M23.9688 11.1376C23.9733 11.2017 23.9774 11.2661 23.9809 11.3305C23.9774 11.2661 23.9733 11.2017 23.9688 11.1376Z" fill="black"/>
<path d="M23.9136 10.5585C23.919 10.603 23.9241 10.6475 23.9289 10.6922C23.924 10.6475 23.9189 10.603 23.9136 10.5585Z" fill="black"/>
<path d="M23.9414 10.8125C23.9487 10.887 23.9553 10.9617 23.9613 11.0366C23.9554 10.9617 23.9488 10.8869 23.9414 10.8125Z" fill="black"/>
<path d="M24 12C24 12.0913 23.9986 12.1822 23.9966 12.2729C23.9986 12.1821 24 12.0912 24 12Z" fill="black"/>
<path d="M23.9809 12.6694C23.9774 12.7339 23.9733 12.7982 23.9688 12.8624C23.9733 12.7982 23.9773 12.7339 23.9809 12.6694Z" fill="black"/>
<path d="M23.9613 12.9635C23.9553 13.0384 23.9487 13.1131 23.9414 13.1875C23.9488 13.1131 23.9554 13.0384 23.9613 12.9635Z" fill="black"/>
<path d="M23.9289 13.3079C23.9241 13.3525 23.919 13.397 23.9136 13.4415C23.9189 13.3971 23.924 13.3525 23.9289 13.3079Z" fill="black"/>
<path d="M23.9966 11.7272C23.9986 11.8179 24 11.9089 24 12C24 11.9089 23.9986 11.8179 23.9966 11.7272Z" fill="black"/>
<path d="M23.9849 11.3992C23.9891 11.485 23.9923 11.5712 23.9947 11.6576C23.9923 11.5712 23.9891 11.485 23.9849 11.3992Z" fill="black"/>
<path d="M23.9947 12.3425C23.9923 12.4289 23.9891 12.5151 23.9849 12.601C23.9892 12.515 23.9923 12.4289 23.9947 12.3425Z" fill="black"/>
<path d="M23.9888 11.4739H9.99401L2.80542 4.28638C2.57306 4.53144 2.3212 4.87363 2.16543 5.11733L9.04006 11.9956L2.15967 18.8761C2.29589 19.1184 2.59265 19.4771 2.80101 19.7105L9.99415 12.5174H23.9904C23.9979 12.3443 24.0002 12.1705 24.0002 11.9957C24.0002 11.7614 23.9937 11.5886 23.9888 11.4739Z" fill="#FFDA44"/>
<path d="M2.91515 14.558V13.5529C3.91818 13.5529 4.73413 12.7369 4.73413 11.7339C4.73413 11.0243 4.15677 10.447 3.44718 10.447C2.96376 10.447 2.57043 10.8402 2.57043 11.3238C2.57043 11.6329 2.82191 11.8844 3.1311 11.8844C3.30585 11.8844 3.44802 11.7422 3.44802 11.5674H4.45311C4.45311 12.2965 3.86005 12.8895 3.13115 12.8895C2.26776 12.8896 1.56543 12.1871 1.56543 11.3239C1.56543 10.2862 2.40965 9.44202 3.44722 9.44202C4.71106 9.44202 5.73931 10.4703 5.73931 11.7341C5.73927 13.2911 4.47238 14.558 2.91515 14.558Z" fill="#FFDA44"/>
</g>
<defs>
<clipPath id="clip0_119_31159">
<rect width="24" height="24" fill="white"/>
</clipPath>
</defs>
</svg>
