<svg width="24" height="24" viewBox="0 0 24 24" fill="none" xmlns="http://www.w3.org/2000/svg">
<g clip-path="url(#clip0_119_31010)">
<path d="M12 24C18.6274 24 24 18.6274 24 12C24 5.37258 18.6274 0 12 0C5.37258 0 0 5.37258 0 12C0 18.6274 5.37258 24 12 24Z" fill="#FCFCFC"/>
<path d="M14.0383 8.38337C14.0383 7.25781 13.1258 6.34534 12.0002 6.34534C10.8746 6.34534 9.96216 7.25781 9.96216 8.38337H5.47852C5.47852 9.49154 6.44386 10.39 7.55203 10.39H7.48528C7.48528 11.4983 8.38359 12.3968 9.49195 12.3968C9.49195 13.378 10.1967 14.1933 11.1274 14.3676L11.1222 14.3793H12.8783L12.8731 14.3676C13.8039 14.1932 14.5086 13.3779 14.5086 12.3968C15.6169 12.3968 16.5152 11.4983 16.5152 10.39H16.4484C17.5566 10.39 18.522 9.49154 18.522 8.38337H14.0383Z" fill="#FFDA44"/>
<path d="M11.1045 14.1714L9.84082 17.0243C10.5076 17.2954 11.2363 17.446 12.0004 17.446C12.7646 17.446 13.4933 17.2954 14.16 17.0243L12.8964 14.1714H11.1045Z" fill="#FFDA44"/>
<path d="M9.3916 9.38562V12.8961C9.3916 14.8929 12.0003 15.5048 12.0003 15.5048C12.0003 15.5048 14.609 14.8929 14.609 12.8961V9.38562H9.3916Z" fill="#F0F0F0"/>
<path d="M2.90975 12.0845L4.32064 16.0306L5.71686 12.0845H6.78243L4.74683 17.3018H3.89441L1.84424 12.0845H2.90975Z" fill="#338AF3"/>
<path d="M19.3037 17.3018V12.0845H20.3178V17.3018H19.3037Z" fill="#338AF3"/>
<path d="M10.4346 10.5193V14.7734C10.7932 15.0373 11.1791 15.2189 11.4781 15.3351V10.5193H10.4346Z" fill="#D80027"/>
<path d="M13.565 10.5193V14.7734C13.2063 15.0373 12.8205 15.2189 12.5215 15.3351V10.5193H13.565Z" fill="#D80027"/>
<path d="M9.3916 9.3855H14.609V11.0409H9.3916V9.3855Z" fill="#0052B4"/>
</g>
<defs>
<clipPath id="clip0_119_31010">
<rect width="24" height="24" fill="white"/>
</clipPath>
</defs>
</svg>
