<svg width="16" height="18" viewBox="0 0 16 18" fill="none" xmlns="http://www.w3.org/2000/svg">
<path d="M5.49992 16.5H3.83325C2.45254 16.5 1.33325 15.4491 1.33325 14.1528V8.08335C1.33325 7.46083 1.59664 6.8638 2.06549 6.42361L6.82141 1.95832C7.47228 1.34722 8.52756 1.34723 9.17843 1.95832L13.9344 6.42361C14.4032 6.8638 14.6666 7.46083 14.6666 8.08335V14.1528C14.6666 15.4491 13.5473 16.5 12.1666 16.5H10.4999M5.49992 16.5V12.3333C5.49992 11.4129 6.24611 10.6667 7.16659 10.6667H8.83325C9.75373 10.6667 10.4999 11.4129 10.4999 12.3333V16.5M5.49992 16.5H10.4999" stroke="url(#paint0_linear_443_4252)" stroke-width="1.66667"/>
<defs>
<linearGradient id="paint0_linear_443_4252" x1="7.99992" y1="1.5" x2="7.99992" y2="16.5" gradientUnits="userSpaceOnUse">
<stop stop-color="#272835"/>
<stop offset="1" stop-color="#72759B"/>
</linearGradient>
</defs>
</svg>
