<svg width="24" height="24" viewBox="0 0 24 24" fill="none" xmlns="http://www.w3.org/2000/svg">
<path d="M2.80777 1.39337L21.1925 19.7782L19.7783 21.1924L16.0316 17.4454L12 21.485L3.52154 12.993C1.48186 10.7094 1.49309 7.24011 3.55524 4.96956L1.39355 2.80759L2.80777 1.39337ZM4.98009 11.6232L12 18.6543L14.6176 16.0314L4.97206 6.3862C3.67816 7.88262 3.67138 10.121 4.98009 11.6232ZM20.2428 4.75733C22.5054 7.02469 22.5831 10.637 20.4788 12.993L18.8442 14.629L17.4302 13.215L19.0202 11.6232C20.3937 10.0467 20.3191 7.66522 18.8271 6.17007C17.3281 4.66791 14.9078 4.60699 13.3371 6.01685L12.0021 7.21521L10.6662 6.01778C10.3163 5.70412 9.92488 5.46322 9.51118 5.2947L7.2604 3.04548C8.92926 2.83932 10.6682 3.33366 12.0011 4.5285C14.3502 2.41997 17.9802 2.48997 20.2428 4.75733Z" fill="black"/>
</svg>
